<?xml version="1.0" encoding="UTF-8" standalone="no"?>
<svg
   xmlns:dc="http://purl.org/dc/elements/1.1/"
   xmlns:cc="http://creativecommons.org/ns#"
   xmlns:rdf="http://www.w3.org/1999/02/22-rdf-syntax-ns#"
   xmlns:svg="http://www.w3.org/2000/svg"
   xmlns="http://www.w3.org/2000/svg"
   xmlns:sodipodi="http://sodipodi.sourceforge.net/DTD/sodipodi-0.dtd"
   xmlns:inkscape="http://www.inkscape.org/namespaces/inkscape"
   width="247.619"
   height="59.92"
   viewBox="0 0 247.619 59.92"
   version="1.1"
   id="svg14"
   sodipodi:docname="4linux.svg"
   inkscape:version="1.0.1 (3bc2e813f5, 2020-09-07)">
  <metadata
     id="metadata20">
    <rdf:RDF>
      <cc:Work
         rdf:about="">
        <dc:format>image/svg+xml</dc:format>
        <dc:type
           rdf:resource="http://purl.org/dc/dcmitype/StillImage" />
        <dc:title />
      </cc:Work>
    </rdf:RDF>
  </metadata>
  <defs
     id="defs18">
    <clipPath
       clipPathUnits="userSpaceOnUse"
       id="clipPath46">
      <path
         style="fill:#ffffff;stroke-width:1"
         id="path48"
         width="65.021774"
         height="60.293903"
         x="75.248886"
         y="-3.2486355"
         sodipodi:type="rect"
         d="M 75.248886,-3.2486355 H 140.27066 V 57.045268 H 75.248886 Z" />
    </clipPath>
  </defs>
  <sodipodi:namedview
     pagecolor="#cdc3c4"
     bordercolor="#666666"
     borderopacity="1"
     objecttolerance="10"
     gridtolerance="10"
     guidetolerance="10"
     inkscape:pageopacity="0.78823529"
     inkscape:pageshadow="2"
     inkscape:window-width="1920"
     inkscape:window-height="969"
     id="namedview16"
     showgrid="false"
     showborder="false"
     inkscape:zoom="4.6644239"
     inkscape:cx="129.65068"
     inkscape:cy="63.419182"
     inkscape:window-x="0"
     inkscape:window-y="27"
     inkscape:window-maximized="1"
     inkscape:current-layer="svg14"
     inkscape:document-rotation="0" />
  <rect
     style="fill:#ffffff;stroke-width:1"
     id="rect34"
     width="42"
     height="42"
     x="102.02039"
     y="38.236256"
     inkscape:export-filename="/home/marcelo/Github/My-Learning-Tracker/img/4linux.png"
     inkscape:export-xdpi="96"
     inkscape:export-ydpi="96" />
  <g
     id="g20"
     transform="matrix(0.87190956,0,0,0.87190956,21.717061,33.426017)"
     style="stroke-width:1.14691"
     clip-path="url(#clipPath46)"
     inkscape:export-xdpi="96"
     inkscape:export-ydpi="96">
    <path
       d="m 125.98689,19.060894 -19.31068,13.299317 h 16.71647 z m 6.58812,13.258284 h 6.75223 l -1.81232,9.18233 h -6.7112 l -1.81349,8.974846 h -9.14365 l 1.77011,-9.017046 H 92.677059 L 94.817606,30.177456 124.87442,9.7964994 h 12.14581 l -4.4464,22.5215106 z"
       fill="#00aab0"
       id="path2"
       style="stroke-width:1.15155" />
    <path
       d="m 141.38457,46.517623 -0.74088,3.787579 h 35.69188 l 0.70336,-3.787579 z m 207.3908,-0.03663 -0.74087,3.868462 h 22.64576 l 0.74087,-3.868462 z m -27.95729,0 -0.70336,3.868462 h 22.60474 l 0.70336,-3.868462 z m -44.17905,0 a 20.914334,20.914334 0 0 0 10.87039,3.911837 h 4.94108 a 24.569448,24.569448 0 0 0 11.36391,-3.911837 z m -94.86417,-0.04078 -0.74086,3.911844 h 22.68679 l 0.74087,-3.911844 z m 59.04334,-0.08204 2.42893,4.034928 h 16.47146 l 0.7819,-4.034928 z m -30.96297,0 -0.78189,4.034928 h 17.4163 l 0.7819,-4.034928 z m -67.39805,-5.232978 -0.7819,3.911837 h 35.61568 l 0.74087,-3.911837 z m 207.35095,-0.08204 -0.74087,3.868469 h 22.60239 l 0.74087,-3.868469 z m -27.99832,0 -0.70335,3.868469 h 22.64577 l 0.70335,-3.868469 z m -48.54338,0 a 7.4344881,7.4344881 0 0 0 1.81115,3.911837 h 30.59604 a 12.168084,12.168084 0 0 0 2.8826,-3.911837 z m -90.4588,0 -0.74087,3.911837 h 22.68445 l 0.74086,-3.911837 z m 54.76106,-0.08204 2.42893,3.993895 h 20.71036 l 0.74087,-3.993895 z m -26.68069,0 -0.7819,3.993895 h 17.45734 l 0.7819,-3.993895 z m -40.30941,-5.275179 -0.74088,3.911837 h 8.48132 l 0.74087,-3.911837 z m -20.2989,0 -0.78893,3.915355 h 9.88217 c 0.0408,-0.123091 0.49471,-2.387897 0.7819,-3.911837 z m 199.31626,-0.03248 3.86847,3.868461 h 12.59947 l -3.41714,-3.868828 z m -16.71646,0 -5.43461,3.868461 h 14.57591 l 5.55887,-3.868461 z m -32.85617,0 a 5.93282,5.93282 0 0 1 -3.00568,3.911837 h 12.06375 a 1.7501878,1.7501878 0 0 0 0.082,-0.452485 l 0.70336,-3.458177 z m -25.93983,0 -0.82058,3.911837 h 12.47522 a 3.4159726,3.4159726 0 0 1 -1.64703,-3.499204 l 0.0408,-0.4115 z m -84.15906,0 -0.74087,3.911837 h 9.88217 c 0.24736,-1.358656 0.45249,-2.635247 0.70336,-3.911837 z m 44.38537,-0.08204 2.42893,4.034928 h 17.49836 c 0.12309,-0.658787 0.5357,-2.553188 0.82058,-4.034928 z m -14.41062,0 c -0.24736,1.276598 -0.49471,2.635247 -0.7819,4.034928 h 9.51174 l 0.82059,-4.034928 z m -68.51287,-5.275179 -0.7819,3.911844 h 9.881 c 0.28834,-1.440713 0.41143,-2.140554 0.78189,-3.911844 z m 189.19259,-0.04078 -0.65878,0.411431 -4.85903,3.458178 h 26.22702 l -3.41714,-3.868469 z m -39.56737,0 -0.74086,3.911837 h 9.88217 l 0.78189,-3.911837 z m -25.81556,0 -0.82058,3.911837 h 10.00526 l 0.74087,-3.911837 z m -84.20009,0 -0.74087,3.911837 h 9.83997 c 0.24736,-1.317623 0.49354,-2.635247 0.74087,-3.911837 z m 40.06207,-0.08204 2.42893,4.034928 h 21.82166 c 0.32939,-1.647031 0.45248,-2.140555 0.82058,-4.034928 h -9.92319 l -0.82059,3.993895 -2.30584,-3.993895 z m -10.08732,0 c -0.24736,1.317623 -0.5357,2.676272 -0.82058,4.034928 h 9.55276 l 0.7819,-4.034928 z m -68.54922,-5.306833 -0.65879,3.458171 -0.082,0.452485 h 9.83997 c 0.24735,-1.317623 0.49471,-2.594221 0.74086,-3.911844 z m 185.56914,-0.04078 4.818,3.868468 h 14.53605 l 5.47564,-3.868468 z m -35.94508,0 -0.74087,3.911844 h 9.9232 l 0.7819,-3.911844 z m -25.69247,0 -0.82059,3.911844 h 9.88217 l 0.74087,-3.911844 z m -84.32318,0 -0.74088,3.911844 h 9.83997 c 0.24736,-1.276598 0.5357,-2.594221 0.7819,-3.911844 z m 55.29678,-0.04078 -0.82058,4.034928 h 9.92321 c 0.28834,-1.399682 0.57675,-2.758338 0.82058,-4.034928 z m -25.32086,0 c -0.28834,1.358649 -0.5357,2.717304 -0.7819,4.034928 h 21.03976 l -2.34452,-4.036073 z m -96.71165,-5.065321 -2.30584,11.693318 h -14.74824 z m 28.16243,-0.28841 c -0.28834,1.52394 -0.5357,2.882589 -0.70336,3.911837 h 9.83997 c 0.24736,-1.358649 0.49354,-2.717304 0.74088,-3.911837 z m 39.60841,0 -0.74088,3.911837 h 9.83997 c 0.24736,-1.27659 0.45249,-2.553188 0.70336,-3.911837 z m 138.17925,0 4.81683,3.868462 h 28.98653 l 5.47564,-3.868462 h -15.69425 l -4.36434,3.376113 -3.45817,-3.376113 z m -28.20463,0 -0.74087,3.95287 h 9.96423 l 0.7819,-3.95287 z m -25.56822,0 -0.82058,3.95287 h 9.75791 l 0.74087,-3.95287 z m -29.0721,0 -0.82059,4.034928 h 9.9232 c 0.37045,-1.89438 0.61781,-3.16511 0.82058,-4.034928 z m -25.32087,0 c -0.28841,1.399681 -0.5357,2.717305 -0.7819,4.034928 h 16.83955 l -2.34452,-4.034928 z m -96.34591,-1.89438 -0.98822,0.703358 -19.31536,13.295806 -1.31763,0.906157 h 1.56497 l 16.71647,-0.04078 h 0.4115 l 0.082,-0.4115 2.59421,-13.299316 0.24736,-1.152332 z m 61.39022,-3.500372 -0.74088,3.911838 h 22.59771 l 0.7819,-3.911838 z m 166.67109,0 -0.74087,3.868462 h 22.80987 l 0.74089,-3.868462 z m -27.95728,0 -0.74088,3.868462 h 22.67977 l 0.70335,-3.868462 z m -28.03935,0 -0.70336,3.911838 h 22.76885 l 0.74088,-3.911838 z m -27.33951,0 -0.70335,3.911838 h 22.72548 l 0.74087,-3.911838 z m -123.35599,0 -0.70336,3.911838 h 22.5215 l 0.74087,-3.911838 z m 101.41125,-0.04078 -0.82059,4.034927 h 16.88058 l 0.82058,-4.034927 z m -33.43293,0 -0.7819,4.034927 h 20.66934 l -2.34453,-4.034927 z M 125.0397,9.9198114 h 11.36392 l -4.28228,21.9037216 -0.12309,0.57675 h 6.79912 l -1.64117,8.23514 h -6.7112 l -0.082,0.370447 -1.73847,8.60558 h -8.15191 l 1.64117,-8.440289 0.12309,-0.57675 h -28.9432 l 1.976431,-10.498786 z m -0.32939,-0.988216 -0.12309,0.08204 -30.016956,20.3809486 -0.164144,0.123091 -0.04078,0.206303 -2.141723,11.284202 -0.12309,0.57675 h 28.945503 l -1.64703,8.440289 -0.082,0.57675 h 10.08732 l 0.082,-0.370447 1.77011,-8.605573 h 6.71122 l 0.082,-0.411501 1.81114,-9.18233 0.082,-0.57675 h -6.74637 l 4.28227,-21.9037206 0.12309,-0.57675 h -12.89129 z m 64.43692,-0.28834 -0.74087,3.9118366 h 22.64576 l 0.7819,-3.9118366 z m 166.63006,-0.04078 -0.74086,3.8684686 h 22.81105 l 0.7409,-3.8684686 z m -27.91625,0 -0.74087,3.8684686 h 22.6868 l 0.74086,-3.8684686 z m -28.12141,0 -0.70335,3.9118366 h 22.80988 l 0.74087,-3.9118366 z m -27.3395,0 -0.70335,3.9118366 h 22.80988 l 0.74087,-3.9118366 z m -21.82166,0 -0.82059,4.0349276 h 16.8419 l 0.82058,-4.0349276 z m -33.43293,0 -0.7819,4.0349276 h 16.51015 l -2.34453,-4.0354386 z m -68.06038,0 -0.74087,3.9118366 h 22.52268 l 0.74087,-3.9118366 z"
       fill="#ffffff"
       id="path4"
       style="fill:#000000;stroke-width:1.14691" />
  </g>
</svg>
