<?xml version="1.0" encoding="UTF-8" standalone="no"?>
<svg
   xmlns:dc="http://purl.org/dc/elements/1.1/"
   xmlns:cc="http://creativecommons.org/ns#"
   xmlns:rdf="http://www.w3.org/1999/02/22-rdf-syntax-ns#"
   xmlns:svg="http://www.w3.org/2000/svg"
   xmlns="http://www.w3.org/2000/svg"
   xmlns:sodipodi="http://sodipodi.sourceforge.net/DTD/sodipodi-0.dtd"
   xmlns:inkscape="http://www.inkscape.org/namespaces/inkscape"
   version="1.1"
   id="svg4398"
   viewBox="0 0 29.952567 60.000003"
   height="0.66666669in"
   width="0.33280629in"
   sodipodi:docname="apache_logo.svg"
   inkscape:version="1.0.1 (3bc2e813f5, 2020-09-07, custom)">
  <sodipodi:namedview
     pagecolor="#ffffff"
     bordercolor="#666666"
     borderopacity="1"
     objecttolerance="10"
     gridtolerance="10"
     guidetolerance="10"
     inkscape:pageopacity="0"
     inkscape:pageshadow="2"
     inkscape:window-width="1920"
     inkscape:window-height="968"
     id="namedview1920"
     showgrid="false"
     fit-margin-top="0"
     fit-margin-left="0"
     fit-margin-right="0"
     fit-margin-bottom="0"
     inkscape:zoom="8.4093737"
     inkscape:cx="8.1025863"
     inkscape:cy="31.09823"
     inkscape:window-x="0"
     inkscape:window-y="27"
     inkscape:window-maximized="1"
     inkscape:current-layer="svg4398"
     inkscape:document-rotation="0" />
  <defs
     id="defs4400">
    <linearGradient
       gradientTransform="matrix(0.4345,-0.9318,-0.9318,-0.4345,6223.4761,-5052.7427)"
       y2="2496.6895"
       x2="-6636.2373"
       y1="2774.2998"
       x1="-6873.6479"
       gradientUnits="userSpaceOnUse"
       id="SVGID_1_">
      <stop
         id="stop3172"
         style="stop-color:#F59723"
         offset="0" />
      <stop
         id="stop3174"
         style="stop-color:#F69822"
         offset="0.3123" />
      <stop
         id="stop3176"
         style="stop-color:#E87726"
         offset="0.8383" />
    </linearGradient>
    <linearGradient
       gradientTransform="matrix(0.4345,-0.9318,-0.9318,-0.4345,6223.4761,-5052.7427)"
       y2="2804.9607"
       x2="-6936.9253"
       y1="2804.9607"
       x1="-8630.7197"
       gradientUnits="userSpaceOnUse"
       id="SVGID_2_">
      <stop
         id="stop3197"
         style="stop-color:#9C2063"
         offset="0.3233" />
      <stop
         id="stop3199"
         style="stop-color:#C82037"
         offset="0.6302" />
      <stop
         id="stop3201"
         style="stop-color:#CC2135"
         offset="0.7514" />
      <stop
         id="stop3203"
         style="stop-color:#E87726"
         offset="1" />
    </linearGradient>
    <linearGradient
       gradientTransform="matrix(0.4345,-0.9318,-0.9318,-0.4345,6223.4761,-5052.7427)"
       y2="2635.2839"
       x2="-7416.9194"
       y1="2635.2839"
       x1="-8426.2559"
       gradientUnits="userSpaceOnUse"
       id="SVGID_3_">
      <stop
         id="stop3208"
         style="stop-color:#282661"
         offset="0" />
      <stop
         id="stop3210"
         style="stop-color:#662E8C"
         offset="9.548389e-02" />
      <stop
         id="stop3212"
         style="stop-color:#9E2064"
         offset="0.7882" />
      <stop
         id="stop3214"
         style="stop-color:#CC2032"
         offset="0.9487" />
    </linearGradient>
    <linearGradient
       gradientTransform="matrix(0.4345,-0.9318,-0.9318,-0.4345,6223.4761,-5052.7427)"
       y2="2820.8604"
       x2="-6841.793"
       y1="2820.8604"
       x1="-8535.5879"
       gradientUnits="userSpaceOnUse"
       id="SVGID_4_">
      <stop
         id="stop3219"
         style="stop-color:#9C2063"
         offset="0.3233" />
      <stop
         id="stop3221"
         style="stop-color:#C82037"
         offset="0.6302" />
      <stop
         id="stop3223"
         style="stop-color:#CC2135"
         offset="0.7514" />
      <stop
         id="stop3225"
         style="stop-color:#E87726"
         offset="1" />
    </linearGradient>
    <linearGradient
       gradientTransform="matrix(0.4345,-0.9318,-0.9318,-0.4345,6223.4761,-5052.7427)"
       y2="2797.8789"
       x2="-7521.9175"
       y1="2797.8789"
       x1="-8412.0576"
       gradientUnits="userSpaceOnUse"
       id="SVGID_5_">
      <stop
         id="stop3230"
         style="stop-color:#282661"
         offset="0" />
      <stop
         id="stop3232"
         style="stop-color:#662E8C"
         offset="9.548389e-02" />
      <stop
         id="stop3234"
         style="stop-color:#9E2064"
         offset="0.7882" />
      <stop
         id="stop3236"
         style="stop-color:#CC2032"
         offset="0.9487" />
    </linearGradient>
    <linearGradient
       gradientTransform="matrix(0.4345,-0.9318,-0.9318,-0.4345,6223.4761,-5052.7427)"
       y2="2645.4897"
       x2="-6841.793"
       y1="2645.4897"
       x1="-8535.5879"
       gradientUnits="userSpaceOnUse"
       id="SVGID_6_">
      <stop
         id="stop3241"
         style="stop-color:#9C2063"
         offset="0.3233" />
      <stop
         id="stop3243"
         style="stop-color:#C82037"
         offset="0.6302" />
      <stop
         id="stop3245"
         style="stop-color:#CC2135"
         offset="0.7514" />
      <stop
         id="stop3247"
         style="stop-color:#E87726"
         offset="1" />
    </linearGradient>
    <linearGradient
       gradientTransform="matrix(0.4345,-0.9318,-0.9318,-0.4345,6223.4761,-5052.7427)"
       y2="2654.2649"
       x2="-6946.8647"
       y1="2654.2649"
       x1="-8640.6592"
       gradientUnits="userSpaceOnUse"
       id="SVGID_7_">
      <stop
         id="stop3252"
         style="stop-color:#9C2063"
         offset="0.3233" />
      <stop
         id="stop3254"
         style="stop-color:#C82037"
         offset="0.6302" />
      <stop
         id="stop3256"
         style="stop-color:#CC2135"
         offset="0.7514" />
      <stop
         id="stop3258"
         style="stop-color:#E87726"
         offset="1" />
    </linearGradient>
    <linearGradient
       gradientTransform="matrix(0.4345,-0.9318,-0.9318,-0.4345,6223.4761,-5052.7427)"
       y2="2593.446"
       x2="-6841.7925"
       y1="2593.446"
       x1="-8535.5889"
       gradientUnits="userSpaceOnUse"
       id="SVGID_8_">
      <stop
         id="stop3267"
         style="stop-color:#9C2063"
         offset="0.3233" />
      <stop
         id="stop3269"
         style="stop-color:#C82037"
         offset="0.6302" />
      <stop
         id="stop3271"
         style="stop-color:#CC2135"
         offset="0.7514" />
      <stop
         id="stop3273"
         style="stop-color:#E87726"
         offset="1" />
    </linearGradient>
    <linearGradient
       gradientTransform="matrix(0.4345,-0.9318,-0.9318,-0.4345,6223.4761,-5052.7427)"
       y2="2599.3242"
       x2="-6841.7925"
       y1="2599.3242"
       x1="-8535.5889"
       gradientUnits="userSpaceOnUse"
       id="SVGID_9_">
      <stop
         id="stop3282"
         style="stop-color:#9C2063"
         offset="0.3233" />
      <stop
         id="stop3284"
         style="stop-color:#C82037"
         offset="0.6302" />
      <stop
         id="stop3286"
         style="stop-color:#CC2135"
         offset="0.7514" />
      <stop
         id="stop3288"
         style="stop-color:#E87726"
         offset="1" />
    </linearGradient>
    <linearGradient
       gradientTransform="matrix(0.4345,-0.9318,-0.9318,-0.4345,6223.4761,-5052.7427)"
       y2="2600.5515"
       x2="-7209.6543"
       y1="2600.5515"
       x1="-7584.0386"
       gradientUnits="userSpaceOnUse"
       id="SVGID_10_">
      <stop
         id="stop3297"
         style="stop-color:#9C2063"
         offset="0.3233" />
      <stop
         id="stop3299"
         style="stop-color:#C82037"
         offset="0.6302" />
      <stop
         id="stop3301"
         style="stop-color:#CC2135"
         offset="0.7514" />
      <stop
         id="stop3303"
         style="stop-color:#E87726"
         offset="1" />
    </linearGradient>
    <linearGradient
       gradientTransform="matrix(0.4345,-0.9318,-0.9318,-0.4345,6223.4761,-5052.7427)"
       y2="2496.6895"
       x2="-6636.2373"
       y1="2774.2998"
       x1="-6873.6479"
       gradientUnits="userSpaceOnUse"
       id="linearGradient4274">
      <stop
         id="stop4276"
         style="stop-color:#F59723"
         offset="0" />
      <stop
         id="stop4278"
         style="stop-color:#F69822"
         offset="0.3123" />
      <stop
         id="stop4280"
         style="stop-color:#E87726"
         offset="0.8383" />
    </linearGradient>
    <linearGradient
       gradientTransform="matrix(0.4345,-0.9318,-0.9318,-0.4345,6223.4761,-5052.7427)"
       y2="2804.9607"
       x2="-6936.9253"
       y1="2804.9607"
       x1="-8630.7197"
       gradientUnits="userSpaceOnUse"
       id="linearGradient4291">
      <stop
         id="stop4293"
         style="stop-color:#9C2063"
         offset="0.3233" />
      <stop
         id="stop4295"
         style="stop-color:#C82037"
         offset="0.6302" />
      <stop
         id="stop4297"
         style="stop-color:#CC2135"
         offset="0.7514" />
      <stop
         id="stop4299"
         style="stop-color:#E87726"
         offset="1" />
    </linearGradient>
    <linearGradient
       gradientTransform="matrix(0.4345,-0.9318,-0.9318,-0.4345,6223.4761,-5052.7427)"
       y2="2635.2839"
       x2="-7416.9194"
       y1="2635.2839"
       x1="-8426.2559"
       gradientUnits="userSpaceOnUse"
       id="linearGradient4302">
      <stop
         id="stop4304"
         style="stop-color:#282661"
         offset="0" />
      <stop
         id="stop4306"
         style="stop-color:#662E8C"
         offset="9.548389e-02" />
      <stop
         id="stop4308"
         style="stop-color:#9E2064"
         offset="0.7882" />
      <stop
         id="stop4310"
         style="stop-color:#CC2032"
         offset="0.9487" />
    </linearGradient>
    <linearGradient
       gradientTransform="matrix(0.4345,-0.9318,-0.9318,-0.4345,6223.4761,-5052.7427)"
       y2="2820.8604"
       x2="-6841.793"
       y1="2820.8604"
       x1="-8535.5879"
       gradientUnits="userSpaceOnUse"
       id="linearGradient4313">
      <stop
         id="stop4315"
         style="stop-color:#9C2063"
         offset="0.3233" />
      <stop
         id="stop4317"
         style="stop-color:#C82037"
         offset="0.6302" />
      <stop
         id="stop4319"
         style="stop-color:#CC2135"
         offset="0.7514" />
      <stop
         id="stop4321"
         style="stop-color:#E87726"
         offset="1" />
    </linearGradient>
    <linearGradient
       gradientTransform="matrix(0.4345,-0.9318,-0.9318,-0.4345,6223.4761,-5052.7427)"
       y2="2797.8789"
       x2="-7521.9175"
       y1="2797.8789"
       x1="-8412.0576"
       gradientUnits="userSpaceOnUse"
       id="linearGradient4324">
      <stop
         id="stop4326"
         style="stop-color:#282661"
         offset="0" />
      <stop
         id="stop4328"
         style="stop-color:#662E8C"
         offset="9.548389e-02" />
      <stop
         id="stop4330"
         style="stop-color:#9E2064"
         offset="0.7882" />
      <stop
         id="stop4332"
         style="stop-color:#CC2032"
         offset="0.9487" />
    </linearGradient>
    <linearGradient
       gradientTransform="matrix(0.4345,-0.9318,-0.9318,-0.4345,6223.4761,-5052.7427)"
       y2="2645.4897"
       x2="-6841.793"
       y1="2645.4897"
       x1="-8535.5879"
       gradientUnits="userSpaceOnUse"
       id="linearGradient4335">
      <stop
         id="stop4337"
         style="stop-color:#9C2063"
         offset="0.3233" />
      <stop
         id="stop4339"
         style="stop-color:#C82037"
         offset="0.6302" />
      <stop
         id="stop4341"
         style="stop-color:#CC2135"
         offset="0.7514" />
      <stop
         id="stop4343"
         style="stop-color:#E87726"
         offset="1" />
    </linearGradient>
    <linearGradient
       gradientTransform="matrix(0.4345,-0.9318,-0.9318,-0.4345,6223.4761,-5052.7427)"
       y2="2654.2649"
       x2="-6946.8647"
       y1="2654.2649"
       x1="-8640.6592"
       gradientUnits="userSpaceOnUse"
       id="linearGradient4346">
      <stop
         id="stop4348"
         style="stop-color:#9C2063"
         offset="0.3233" />
      <stop
         id="stop4350"
         style="stop-color:#C82037"
         offset="0.6302" />
      <stop
         id="stop4352"
         style="stop-color:#CC2135"
         offset="0.7514" />
      <stop
         id="stop4354"
         style="stop-color:#E87726"
         offset="1" />
    </linearGradient>
    <linearGradient
       gradientTransform="matrix(0.4345,-0.9318,-0.9318,-0.4345,6223.4761,-5052.7427)"
       y2="2593.446"
       x2="-6841.7925"
       y1="2593.446"
       x1="-8535.5889"
       gradientUnits="userSpaceOnUse"
       id="linearGradient4359">
      <stop
         id="stop4361"
         style="stop-color:#9C2063"
         offset="0.3233" />
      <stop
         id="stop4363"
         style="stop-color:#C82037"
         offset="0.6302" />
      <stop
         id="stop4365"
         style="stop-color:#CC2135"
         offset="0.7514" />
      <stop
         id="stop4367"
         style="stop-color:#E87726"
         offset="1" />
    </linearGradient>
    <linearGradient
       gradientTransform="matrix(0.4345,-0.9318,-0.9318,-0.4345,6223.4761,-5052.7427)"
       y2="2599.3242"
       x2="-6841.7925"
       y1="2599.3242"
       x1="-8535.5889"
       gradientUnits="userSpaceOnUse"
       id="linearGradient4372">
      <stop
         id="stop4374"
         style="stop-color:#9C2063"
         offset="0.3233" />
      <stop
         id="stop4376"
         style="stop-color:#C82037"
         offset="0.6302" />
      <stop
         id="stop4378"
         style="stop-color:#CC2135"
         offset="0.7514" />
      <stop
         id="stop4380"
         style="stop-color:#E87726"
         offset="1" />
    </linearGradient>
    <linearGradient
       gradientTransform="matrix(0.4345,-0.9318,-0.9318,-0.4345,6223.4761,-5052.7427)"
       y2="2600.5515"
       x2="-7209.6543"
       y1="2600.5515"
       x1="-7584.0386"
       gradientUnits="userSpaceOnUse"
       id="linearGradient4385">
      <stop
         id="stop4387"
         style="stop-color:#9C2063"
         offset="0.3233" />
      <stop
         id="stop4389"
         style="stop-color:#C82037"
         offset="0.6302" />
      <stop
         id="stop4391"
         style="stop-color:#CC2135"
         offset="0.7514" />
      <stop
         id="stop4393"
         style="stop-color:#E87726"
         offset="1" />
    </linearGradient>
  </defs>
  <metadata
     id="metadata4403">
    <rdf:RDF>
      <cc:Work
         rdf:about="">
        <dc:format>image/svg+xml</dc:format>
        <dc:type
           rdf:resource="http://purl.org/dc/dcmitype/StillImage" />
        <dc:title></dc:title>
      </cc:Work>
    </rdf:RDF>
  </metadata>
  <g
     id="g1127"
     transform="matrix(0.32778613,0,0,0.32778613,3.3106399e-8,-1.2139778e-6)"
     style="stroke-width:3.05077"
     inkscape:export-xdpi="96"
     inkscape:export-ydpi="96">
    <path
       style="fill:#000000;stroke-width:0.323153"
       id="path3178"
       d="M 77.897076,0.8661876 C 75.026514,2.5609839 70.249307,7.359376 64.57174,14.318633 l 5.222091,9.872189 c 3.675589,-5.243276 7.404141,-9.978113 11.164471,-14.013847 0.296589,-0.3177744 0.434291,-0.4660691 0.434291,-0.4660691 -0.137702,0.1482947 -0.296589,0.3177741 -0.434291,0.4660691 -1.218135,1.334652 -4.91491,5.656383 -10.486553,14.215104 5.370386,-0.264812 13.611333,-1.36643 20.337556,-2.510417 C 92.821876,10.664229 88.849697,5.53747 88.849697,5.53747 c 0,0 -5.042019,-8.1562073 -10.952621,-4.6712824 z"
       inkscape:connector-curvature="0" />
    <path
       style="fill:#000000;stroke-width:0.323153"
       id="path3180"
       d="m 69.041765,57.19698 c 0.03178,-0.01059 0.07415,-0.01059 0.116517,-0.02119 l -0.752066,0.08474 c -0.04237,0.02119 -0.08474,0.04237 -0.127109,0.06356 0.243627,-0.05296 0.508439,-0.09533 0.762658,-0.12711 z"
       inkscape:connector-curvature="0" />
    <path
       style="fill:#000000;stroke-width:0.323153"
       id="path3182"
       d="m 63.692564,74.886417 c -0.423699,0.09533 -0.857991,0.16948 -1.302875,0.243627 0.444884,-0.07415 0.879176,-0.158887 1.302875,-0.243627 z"
       inkscape:connector-curvature="0" />
    <path
       style="fill:#000000;stroke-width:0.323153"
       id="path3186"
       d="M 62.061323,75.172414 Z"
       inkscape:connector-curvature="0" />
    <path
       style="fill:#000000;stroke-width:0.323153"
       id="path3188"
       d="m 60.324156,83.79469 c -0.667326,0.116517 -1.345244,0.243627 -2.05494,0.360144 0,0 -0.01059,0 -0.01059,0.01059 0.360145,-0.05296 0.709696,-0.105925 1.059248,-0.158887 0.328367,-0.07415 0.667326,-0.137703 1.006285,-0.21185 z"
       inkscape:connector-curvature="0" />
    <path
       style="opacity:0.35;fill:#000000;stroke-width:0.323153"
       id="path3190"
       d="m 60.324156,83.79469 c -0.667326,0.116517 -1.345244,0.243627 -2.05494,0.360144 0,0 -0.01059,0 -0.01059,0.01059 0.360145,-0.05296 0.709696,-0.105925 1.059248,-0.158887 0.328367,-0.07415 0.667326,-0.137703 1.006285,-0.21185 z"
       enable-background="new    "
       inkscape:connector-curvature="0" />
    <path
       style="fill:#000000;stroke-width:0.323153"
       id="path3192"
       d="m 62.071915,75.161821 c 0,0 0,0.01059 0,0 -0.01059,0 -0.01059,0 -0.01059,0.01059 0.105924,-0.01059 0.222442,-0.03178 0.328366,-0.05296 0.444884,-0.06355 0.879176,-0.137702 1.302875,-0.243627 -0.529624,0.09533 -1.059248,0.190665 -1.620649,0.285997 z"
       inkscape:connector-curvature="0" />
    <path
       style="opacity:0.35;fill:#000000;stroke-width:0.323153"
       id="path3194"
       d="m 62.071915,75.161821 c 0,0 0,0.01059 0,0 -0.01059,0 -0.01059,0 -0.01059,0.01059 0.105924,-0.01059 0.222442,-0.03178 0.328366,-0.05296 0.444884,-0.06355 0.879176,-0.137702 1.302875,-0.243627 -0.529624,0.09533 -1.059248,0.190665 -1.620649,0.285997 z"
       enable-background="new    "
       inkscape:connector-curvature="0" />
    <path
       style="fill:#000000;stroke-width:0.323153"
       id="path3205"
       d="m 54.371184,49.708099 c 1.588872,-2.976486 3.198928,-5.878825 4.819577,-8.696424 1.684204,-2.944708 3.400185,-5.783492 5.126759,-8.537536 0.09533,-0.158887 0.21185,-0.328367 0.307182,-0.487254 1.705389,-2.701082 3.431963,-5.306831 5.158536,-7.785471 l -5.222091,-9.872188 c -0.391921,0.476661 -0.783843,0.963915 -1.186357,1.472354 -1.514724,1.885461 -3.071819,3.898032 -4.681875,6.048305 -1.811314,2.415084 -3.664997,4.999649 -5.56105,7.711323 -1.737167,2.499824 -3.516703,5.116166 -5.296239,7.838433 -1.514724,2.30916 -3.018856,4.681875 -4.522988,7.118144 -0.05296,0.08474 -0.105924,0.180072 -0.158887,0.275405 l 6.810963,13.452446 c 1.440577,-2.912932 2.923524,-5.762308 4.40647,-8.537537 z"
       inkscape:connector-curvature="0" />
    <path
       style="fill:#000000;stroke-width:0.323153"
       id="path3216"
       d="m 23.356412,125.46549 c -0.900361,2.46805 -1.811314,4.99965 -2.711674,7.57363 -0.01059,0.0318 -0.02118,0.0741 -0.04237,0.10592 -0.12711,0.36014 -0.264812,0.73088 -0.38133,1.09103 -0.614363,1.73716 -1.143987,3.30485 -2.362122,6.85333 2.001978,0.91095 3.612035,3.32604 5.137351,6.05889 -0.158887,-2.82819 -1.324059,-5.4869 -3.559072,-7.54184 9.882781,0.44489 18.399133,-2.05494 22.805603,-9.27901 0.391922,-0.64614 0.752066,-1.31347 1.080433,-2.04435 -2.001978,2.5422 -4.49121,3.61204 -9.162493,3.35782 -0.01059,0 -0.02119,0.0106 -0.03178,0.0106 0.01059,0 0.02119,-0.0106 0.03178,-0.0106 6.88511,-3.08241 10.327665,-6.03771 13.388891,-10.93144 0.720289,-1.16517 1.429985,-2.42567 2.150273,-3.83447 -6.016527,6.17541 -12.975784,7.93376 -20.316371,6.59911 l -5.508088,0.60377 c -0.180072,0.46607 -0.338959,0.92155 -0.519031,1.38761 z"
       inkscape:connector-curvature="0" />
    <path
       style="fill:#000000;stroke-width:0.323153"
       id="path3227"
       d="m 25.930384,113.14644 c 1.186357,-3.07181 2.415084,-6.186 3.664997,-9.32138 1.207542,-3.00826 2.436269,-6.037708 3.707367,-9.067156 1.271097,-3.029449 2.563379,-6.090675 3.876846,-9.141308 1.334652,-3.103596 2.711674,-6.196599 4.120474,-9.27901 1.387614,-3.050633 2.785821,-6.080082 4.215806,-9.06716 0.508438,-1.080433 1.038062,-2.160865 1.557094,-3.230706 0.90036,-1.853683 1.811313,-3.696774 2.732859,-5.51868 0.05296,-0.09533 0.09533,-0.201257 0.148294,-0.296589 L 43.143159,44.772005 c -0.105925,0.180072 -0.222442,0.370736 -0.33896,0.540216 -1.588871,2.595157 -3.16715,5.243276 -4.713652,7.944358 -1.567686,2.732859 -3.103596,5.51868 -4.607727,8.346872 -1.260505,2.383307 -2.499825,4.777207 -3.71796,7.213477 -0.243627,0.487253 -0.476661,0.9851 -0.720288,1.472354 -1.482947,3.061226 -2.817599,5.995342 -4.035734,8.844718 -1.377022,3.209521 -2.584564,6.281339 -3.63322,9.19427 -0.699103,1.917239 -1.324059,3.76033 -1.906645,5.539866 -0.476662,1.514724 -0.921546,3.040041 -1.36643,4.554765 -1.016878,3.559069 -1.896053,7.118149 -2.616342,10.656029 l 6.84274,13.50541 c 0.900361,-2.41508 1.832499,-4.87254 2.785822,-7.35118 0.285997,-0.70969 0.540216,-1.4088 0.815621,-2.08672 z"
       inkscape:connector-curvature="0" />
    <path
       style="fill:#000000;stroke-width:0.323153"
       id="path3238"
       d="m 15.412054,109.53441 c -0.857991,4.32173 -1.472354,8.62228 -1.779536,12.90164 -0.01059,0.14829 -0.02118,0.29659 -0.03178,0.44488 -2.13968,-3.42137 -7.8490251,-6.758 -7.8384326,-6.72622 4.0992886,5.93178 7.2028846,11.8212 7.6583606,17.60469 -2.192642,0.44489 -5.1903135,-0.20125 -8.6540535,-1.47235 3.6120347,3.32604 6.3237085,4.23699 7.3935485,4.49121 -3.3260373,0.21185 -6.7791848,2.48923 -10.2641097,5.11617 5.0949814,-2.07613 9.2154547,-2.90234 12.1601637,-2.23502 C 9.374342,152.90001 4.6924672,167.51763 -1.01e-7,183.0462 1.4405768,182.6225 2.2985674,181.64799 2.7752289,180.34512 3.6120346,177.53811 9.1519,159.08602 17.848324,134.86102 c 0.254219,-0.68851 0.497846,-1.38761 0.752066,-2.07612 0.06355,-0.20126 0.137702,-0.39193 0.211849,-0.572 0.910953,-2.54219 1.874868,-5.13735 2.849376,-7.78547 0.222442,-0.60377 0.444884,-1.20754 0.677919,-1.81131 0,-0.0106 0.01059,-0.0212 0.01059,-0.0318 l -6.853332,-13.50541 c -0.02118,0.1377 -0.05296,0.29659 -0.08474,0.45548 z"
       inkscape:connector-curvature="0" />
    <path
       style="fill:#000000;stroke-width:0.323153"
       id="path3249"
       d="m 51.013369,59.347253 c -0.201257,0.402514 -0.391922,0.805028 -0.593179,1.207542 -0.593178,1.218135 -1.186357,2.457455 -1.800721,3.728552 -0.656733,1.377022 -1.313467,2.775229 -1.980793,4.215806 -0.338959,0.720289 -0.677918,1.45117 -1.016878,2.192643 -1.016877,2.213828 -2.044348,4.501803 -3.093003,6.863925 -1.28169,2.891746 -2.605749,5.910602 -3.929809,9.045975 -1.260505,2.987079 -2.563379,6.06949 -3.855662,9.268418 -1.239319,3.029448 -2.489232,6.164826 -3.760329,9.384936 -1.133395,2.87056 -2.277382,5.83645 -3.42137,8.87649 -0.05296,0.13771 -0.105925,0.29659 -0.158887,0.4343 -1.143988,3.01885 -2.298568,6.12245 -3.453148,9.30019 -0.02118,0.0742 -0.05296,0.1377 -0.07415,0.22244 l 5.508088,-0.60377 c -0.105925,-0.0212 -0.222442,-0.0318 -0.328367,-0.053 6.577929,-0.81562 15.337907,-5.74112 20.983697,-11.81061 2.60575,-2.79642 4.967872,-6.10127 7.149922,-9.96752 1.620649,-2.870565 3.156558,-6.069493 4.61832,-9.596788 1.271097,-3.082411 2.489232,-6.429633 3.664997,-10.041668 -1.514724,0.794436 -3.241298,1.387614 -5.147944,1.790129 -0.338959,0.07415 -0.677918,0.137702 -1.02747,0.201257 -0.349552,0.06355 -0.699103,0.116517 -1.059248,0.158887 v 0 0 c 0,0 0.01059,0 0.01059,-0.01059 6.143637,-2.362122 10.009891,-6.916887 12.816897,-12.499123 -1.610056,1.101618 -4.236991,2.542195 -7.382956,3.230706 -0.423699,0.09533 -0.857991,0.16948 -1.302875,0.243627 -0.105925,0.01059 -0.222442,0.03178 -0.328367,0.05296 v 0 0 h 0.01059 c 0,0 0,0 0.01059,0 v 0 c 2.13968,-0.889768 3.929809,-1.896053 5.486903,-3.071818 0.338959,-0.25422 0.667326,-0.508439 0.963916,-0.783843 0.476661,-0.413107 0.921545,-0.847399 1.366429,-1.292283 0.275405,-0.296589 0.540216,-0.593178 0.805028,-0.90036 0.614364,-0.730881 1.186358,-1.514724 1.715982,-2.362123 0.158887,-0.264811 0.328366,-0.519031 0.476661,-0.794435 0.21185,-0.391922 0.402514,-0.783844 0.593179,-1.15458 0.85799,-1.715982 1.546501,-3.262483 2.086718,-4.607728 0.275404,-0.677918 0.508439,-1.292282 0.720288,-1.885461 0.08474,-0.233034 0.158887,-0.455476 0.233035,-0.677918 0.222442,-0.646141 0.391921,-1.218135 0.529624,-1.726574 0.211849,-0.762658 0.338959,-1.366429 0.402514,-1.800721 v 0 0 c -0.21185,0.158887 -0.444884,0.328367 -0.720289,0.487254 -1.853683,1.11221 -5.031426,2.107903 -7.594806,2.584564 l 5.052612,-0.550809 -5.052612,0.550809 c -0.03178,0.01059 -0.07415,0.01059 -0.116517,0.02118 -0.264812,0.04237 -0.508439,0.08474 -0.773251,0.116517 0.04237,-0.02118 0.08474,-0.04237 0.12711,-0.06355 l -17.297515,1.896053 c 0,0.04237 -0.03178,0.116517 -0.06356,0.180072 z"
       inkscape:connector-curvature="0" />
    <path
       style="fill:#000000;stroke-width:0.323153"
       id="path3260"
       d="m 70.482342,24.392079 c -1.535909,2.362122 -3.209521,5.042019 -5.031427,8.08206 -0.09533,0.148295 -0.201257,0.328367 -0.285997,0.476661 -1.557094,2.626935 -3.20952,5.508088 -4.967871,8.675239 -1.504132,2.732859 -3.071819,5.656383 -4.70306,8.802348 -1.419392,2.743452 -2.881154,5.656383 -4.395878,8.738794 l 17.297515,-1.896053 c 5.042019,-2.319753 7.287624,-4.406471 9.469674,-7.446512 0.571994,-0.836805 1.165173,-1.705389 1.737167,-2.616342 1.779536,-2.775229 3.516702,-5.825862 5.073796,-8.865903 1.504132,-2.934116 2.828191,-5.836455 3.845069,-8.463389 0.646141,-1.663019 1.165173,-3.20952 1.525317,-4.57595 0.317774,-1.19695 0.561401,-2.340937 0.752066,-3.431963 -6.705038,1.15458 -14.956578,2.256198 -20.316371,2.52101 z"
       inkscape:connector-curvature="0" />
    <path
       style="fill:#000000;stroke-width:0.323153"
       id="path3262"
       d="m 59.296686,83.985355 c -0.349552,0.06355 -0.699103,0.116517 -1.059248,0.158887 v 0 c 0.360145,-0.03178 0.720289,-0.09533 1.059248,-0.158887 z"
       inkscape:connector-curvature="0" />
    <path
       style="opacity:0.35;fill:#000000;stroke-width:0.323153"
       id="path3264"
       d="m 59.296686,83.985355 c -0.349552,0.06355 -0.699103,0.116517 -1.059248,0.158887 v 0 c 0.360145,-0.03178 0.720289,-0.09533 1.059248,-0.158887 z"
       enable-background="new    "
       inkscape:connector-curvature="0" />
    <path
       style="fill:#000000;stroke-width:0.323153"
       id="path3275"
       d="m 59.296686,83.985355 c -0.349552,0.06355 -0.699103,0.116517 -1.059248,0.158887 v 0 c 0.360145,-0.03178 0.720289,-0.09533 1.059248,-0.158887 z"
       inkscape:connector-curvature="0" />
    <path
       style="fill:#000000;stroke-width:0.323153"
       id="path3277"
       d="m 62.061323,75.172414 c 0.105924,-0.01059 0.222442,-0.03178 0.328366,-0.05296 -0.105924,0.01059 -0.211849,0.04237 -0.328366,0.05296 z"
       inkscape:connector-curvature="0" />
    <path
       style="opacity:0.35;fill:#000000;stroke-width:0.323153"
       id="path3279"
       d="m 62.061323,75.172414 c 0.105924,-0.01059 0.222442,-0.03178 0.328366,-0.05296 -0.105924,0.01059 -0.211849,0.04237 -0.328366,0.05296 z"
       enable-background="new    "
       inkscape:connector-curvature="0" />
    <path
       style="fill:#000000;stroke-width:0.323153"
       id="path3290"
       d="m 62.061323,75.172414 c 0.105924,-0.01059 0.222442,-0.03178 0.328366,-0.05296 -0.105924,0.01059 -0.211849,0.04237 -0.328366,0.05296 z"
       inkscape:connector-curvature="0" />
    <path
       style="fill:#000000;stroke-width:0.323153"
       id="path3292"
       d="m 62.061323,75.172414 c 0.01059,0 0.01059,-0.01059 0,0 v 0 0 0 c 0.01059,-0.01059 0.01059,0 0,0 z"
       inkscape:connector-curvature="0" />
    <path
       style="opacity:0.35;fill:#000000;stroke-width:0.323153"
       id="path3294"
       d="m 62.061323,75.172414 c 0.01059,0 0.01059,-0.01059 0,0 v 0 0 0 c 0.01059,-0.01059 0.01059,0 0,0 z"
       enable-background="new    "
       inkscape:connector-curvature="0" />
    <path
       style="fill:#000000;stroke-width:0.323153"
       id="path3305"
       d="m 62.061323,75.172414 c 0.01059,0 0.01059,-0.01059 0,0 v 0 0 0 c 0.01059,-0.01059 0.01059,0 0,0 z"
       inkscape:connector-curvature="0" />
  </g>
</svg>
