<?xml version="1.0" encoding="UTF-8" standalone="no"?>
<svg
   xmlns:dc="http://purl.org/dc/elements/1.1/"
   xmlns:cc="http://creativecommons.org/ns#"
   xmlns:rdf="http://www.w3.org/1999/02/22-rdf-syntax-ns#"
   xmlns:svg="http://www.w3.org/2000/svg"
   xmlns="http://www.w3.org/2000/svg"
   xmlns:sodipodi="http://sodipodi.sourceforge.net/DTD/sodipodi-0.dtd"
   xmlns:inkscape="http://www.inkscape.org/namespaces/inkscape"
   viewBox="0 0 40 40"
   version="1.1"
   id="svg7"
   sodipodi:docname="aws.svg"
   inkscape:version="0.92.5 (2060ec1f9f, 2020-04-08)">
  <metadata
     id="metadata13">
    <rdf:RDF>
      <cc:Work
         rdf:about="">
        <dc:format>image/svg+xml</dc:format>
        <dc:type
           rdf:resource="http://purl.org/dc/dcmitype/StillImage" />
        <dc:title></dc:title>
      </cc:Work>
    </rdf:RDF>
  </metadata>
  <defs
     id="defs11" />
  <sodipodi:namedview
     pagecolor="#ffffff"
     bordercolor="#666666"
     borderopacity="1"
     objecttolerance="10"
     gridtolerance="10"
     guidetolerance="10"
     inkscape:pageopacity="0"
     inkscape:pageshadow="2"
     inkscape:window-width="1314"
     inkscape:window-height="704"
     id="namedview9"
     showgrid="false"
     showborder="false"
     inkscape:zoom="7.1983949"
     inkscape:cx="59.416052"
     inkscape:cy="42.999533"
     inkscape:window-x="52"
     inkscape:window-y="27"
     inkscape:window-maximized="1"
     inkscape:current-layer="svg7" />
  <g
     id="AWS"
     transform="matrix(3.815891,0,0,3.815891,-16.899197,-81.662158)"
     inkscape:export-xdpi="96"
     inkscape:export-ydpi="96">
    <path
       d="m 14.29,19.84 a 7.1,7.1 0 0 1 -0.3,-0.67 3.08,3.08 0 0 1 -0.1,-0.83 v 0 -3 A 3.09,3.09 0 0 0 13.1,13 3.41,3.41 0 0 0 10.66,12.24 5.65,5.65 0 0 0 9.21,12.42 5.22,5.22 0 0 0 8,12.87 0.73,0.73 0 0 0 7.74,13.07 0.62,0.62 0 0 0 7.68,13.39 v 0.46 c 0,0.19 0.06,0.29 0.19,0.29 H 8.02 L 8.38,14 a 8.32,8.32 0 0 1 1,-0.32 4.49,4.49 0 0 1 1,-0.12 2.14,2.14 0 0 1 1.52,0.43 2.06,2.06 0 0 1 0.43,1.49 v 0.68 C 11.96,16.07 11.61,16 11.26,15.95 a 8.52,8.52 0 0 0 -1,-0.07 A 3.34,3.34 0 0 0 8,16.6 2.37,2.37 0 0 0 7.15,18.51 2.37,2.37 0 0 0 7.84,20.3 2.53,2.53 0 0 0 9.71,21 a 3.46,3.46 0 0 0 2.74,-1.28 5.51,5.51 0 0 0 0.29,0.55 2.6,2.6 0 0 0 0.33,0.43 0.4,0.4 0 0 0 0.28,0.13 0.38,0.38 0 0 0 0.24,-0.08 l 0.59,-0.39 a 0.32,0.32 0 0 0 0.11,-0.49 z M 12.36,17.58 A 3.12,3.12 0 0 1 12.27,18.39 1.52,1.52 0 0 1 12,19 a 2.17,2.17 0 0 1 -0.88,0.6 3.06,3.06 0 0 1 -1,0.16 1.38,1.38 0 0 1 -0.87,-2.4 2.18,2.18 0 0 1 1.38,-0.36 c 0.29,0 0.58,0 0.88,0.05 0.3,0.05 0.58,0.1 0.85,0.16 z M 17,20.3 a 0.78,0.78 0 0 0 0.19,0.37 0.58,0.58 0 0 0 0.36,0.09 h 0.8 a 0.59,0.59 0 0 0 0.37,-0.09 0.74,0.74 0 0 0 0.18,-0.38 l 1.43,-6 1.45,6 a 0.61,0.61 0 0 0 0.17,0.37 0.56,0.56 0 0 0 0.38,0.1 h 0.8 a 0.56,0.56 0 0 0 0.35,-0.1 0.72,0.72 0 0 0 0.2,-0.36 L 26,13.11 a 0.65,0.65 0 0 0 0.06,-0.23 0.89,0.89 0 0 0 0,-0.15 0.2,0.2 0 0 0 -0.23,-0.23 h -0.87 a 0.68,0.68 0 0 0 -0.36,0.09 0.84,0.84 0 0 0 -0.18,0.36 L 22.8,19.19 21.31,13 A 0.64,0.64 0 0 0 21.14,12.64 0.62,0.62 0 0 0 20.76,12.55 H 20 A 0.47,0.47 0 0 0 19.45,13 L 18,19.12 16.45,13 A 0.8,0.8 0 0 0 16.27,12.64 0.57,0.57 0 0 0 15.9,12.55 H 15 c -0.15,0 -0.22,0.08 -0.22,0.23 a 1.28,1.28 0 0 0 0.08,0.37 z m 10,0.17 a 4.07,4.07 0 0 0 1.07,0.37 6.28,6.28 0 0 0 1.43,0.17 4.48,4.48 0 0 0 1.34,-0.2 2.86,2.86 0 0 0 1,-0.52 2.45,2.45 0 0 0 0.68,-0.82 2.35,2.35 0 0 0 0.24,-1.08 2.09,2.09 0 0 0 -0.43,-1.3 A 2.81,2.81 0 0 0 31,16.2 l -1.32,-0.42 a 2.76,2.76 0 0 1 -1,-0.52 0.89,0.89 0 0 1 -0.28,-0.66 0.91,0.91 0 0 1 0.44,-0.83 2.49,2.49 0 0 1 1.16,-0.26 4.15,4.15 0 0 1 1.79,0.37 1.08,1.08 0 0 0 0.35,0.11 c 0.14,0 0.22,-0.1 0.22,-0.3 v -0.44 a 0.45,0.45 0 0 0 -0.09,-0.3 0.76,0.76 0 0 0 -0.28,-0.24 2.6,2.6 0 0 0 -0.39,-0.17 c -0.17,0 -0.34,-0.1 -0.53,-0.14 l -0.6,-0.11 h -0.63 a 4.08,4.08 0 0 0 -1.17,0.15 3.05,3.05 0 0 0 -1,0.49 2.33,2.33 0 0 0 -0.67,0.76 2.05,2.05 0 0 0 -0.25,1 2.27,2.27 0 0 0 0.46,1.35 2.88,2.88 0 0 0 1.49,0.95 l 1.35,0.42 a 2.12,2.12 0 0 1 0.94,0.48 0.91,0.91 0 0 1 0.26,0.65 1,1 0 0 1 -0.49,0.89 2.56,2.56 0 0 1 -1.36,0.3 5.29,5.29 0 0 1 -1.11,-0.11 4.85,4.85 0 0 1 -1,-0.32 l -0.23,-0.1 h -0.17 c -0.14,0 -0.22,0.1 -0.22,0.29 V 20 a 0.62,0.62 0 0 0 0.06,0.26 0.69,0.69 0 0 0 0.32,0.21 z m 3.82,4.36 A 27.71,27.71 0 0 1 20.3,27 28,28 0 0 1 6.44,23.31 C 6.1,23.11 5.84,23.46 6.12,23.72 A 20.52,20.52 0 0 0 20,29 20.08,20.08 0 0 0 31.34,25.54 c 0.48,-0.38 0.04,-0.94 -0.47,-0.71 z m 3,-1.75 c -0.33,-0.41 -3.21,-0.77 -5,0.46 -0.27,0.2 -0.22,0.46 0.07,0.42 1,-0.12 3.2,-0.38 3.59,0.12 0.39,0.5 -0.44,2.57 -0.81,3.5 -0.11,0.27 0.13,0.39 0.38,0.17 1.75,-1.38 2.18,-4.25 1.84,-4.67 z"
       id="path4"
       inkscape:connector-curvature="0" />
  </g>
</svg>
