<?xml version="1.0" encoding="UTF-8" standalone="no"?>
<svg
   xmlns:dc="http://purl.org/dc/elements/1.1/"
   xmlns:cc="http://creativecommons.org/ns#"
   xmlns:rdf="http://www.w3.org/1999/02/22-rdf-syntax-ns#"
   xmlns:svg="http://www.w3.org/2000/svg"
   xmlns="http://www.w3.org/2000/svg"
   xmlns:sodipodi="http://sodipodi.sourceforge.net/DTD/sodipodi-0.dtd"
   xmlns:inkscape="http://www.inkscape.org/namespaces/inkscape"
   enable-background="new 0 0 24 24"
   height="24px"
   id="Layer_1"
   version="1.1"
   viewBox="0 0 24 24"
   width="24px"
   xml:space="preserve"
   sodipodi:docname="button_article.svg"
   inkscape:version="0.92.5 (2060ec1f9f, 2020-04-08)"
   inkscape:export-filename="/home/marcelo/Github/My-Learning-Tracker/img/button_article.png"
   inkscape:export-xdpi="96"
   inkscape:export-ydpi="96"><metadata
   id="metadata29"><rdf:RDF><cc:Work
       rdf:about=""><dc:format>image/svg+xml</dc:format><dc:type
         rdf:resource="http://purl.org/dc/dcmitype/StillImage" /><dc:title /></cc:Work></rdf:RDF></metadata><defs
   id="defs27" /><sodipodi:namedview
   pagecolor="#ffffff"
   bordercolor="#666666"
   borderopacity="1"
   objecttolerance="10"
   gridtolerance="10"
   guidetolerance="10"
   inkscape:pageopacity="0"
   inkscape:pageshadow="2"
   inkscape:window-width="1868"
   inkscape:window-height="1016"
   id="namedview25"
   showgrid="false"
   inkscape:zoom="3.9310111"
   inkscape:cx="46.489775"
   inkscape:cy="12.355075"
   inkscape:window-x="52"
   inkscape:window-y="27"
   inkscape:window-maximized="1"
   inkscape:current-layer="Layer_1"
   showborder="false" /><g
   id="g839"
   transform="translate(1.0725857,-0.62447901)"><g
   inkscape:export-ydpi="96"
   inkscape:export-xdpi="96"
   transform="matrix(0.91666667,0,0,0.91666667,8,2.1783053)"
   id="g22"><rect
     id="rect2"
     y="13"
     x="9"
     width="5"
     height="1" /><rect
     id="rect4"
     y="15"
     x="9"
     width="5"
     height="1" /><rect
     id="rect6"
     y="17"
     x="9"
     width="5"
     height="1" /><rect
     id="rect8"
     y="19"
     x="9"
     width="5"
     height="1" /><rect
     id="rect10"
     y="13"
     x="15"
     width="5"
     height="1" /><rect
     id="rect12"
     y="15"
     x="15"
     width="5"
     height="1" /><rect
     id="rect14"
     y="17"
     x="15"
     width="5"
     height="1" /><rect
     id="rect16"
     y="19"
     x="15"
     width="5"
     height="1" /><path
     inkscape:connector-curvature="0"
     id="path18"
     d="M 22.9,3 H 20 V 1.1 C 20,0.5 19.5,0 18.9,0 H 1.1 C 0.5,0 0,0.5 0,1.1 0,1.1 0,20.3 0,20.5 0,22.4 1.6,24 3.5,24 3.7,24 4,24 4,24 h 16 c 0,0 0.3,0 0.5,0 1.9,0 3.5,-1.6 3.5,-3.5 0,-0.2 0,-0.5 0,-0.5 V 4.1 C 24,3.5 23.5,3 22.9,3 Z M 5,20.7 C 5,21.3 4.7,21.8 4.2,22 L 4,22.1 C 3.8,22.2 3.7,22.2 3.5,22.2 2.7,22.2 2,21.5 2,20.7 2,20.4 2,2 2,2 H 18 V 3 H 16.5 6.1 3.5 C 3.2,3 3,3.2 3,3.5 v 17 C 3,20.8 3.2,21 3.5,21 3.8,21 4,20.8 4,20.5 V 4 H 5 C 5,4 5,20.4 5,20.7 Z M 22,20 c 0,0 0,0.4 0,0.7 0,0.8 -0.7,1.3 -1.5,1.3 -0.2,0 -0.5,0 -0.5,0 H 6.7 C 6.9,21.5 7,21 7,20.5 7,20.3 7,5 7,5 h 15 z" /><path
     inkscape:connector-curvature="0"
     id="path20"
     d="M 20,7 H 9 v 5 h 11 z m -1,4 H 10 V 8 h 9 z" /></g><text
   inkscape:export-ydpi="96"
   inkscape:export-xdpi="96"
   id="text33"
   y="23.356972"
   x="34.067799"
   style="font-style:normal;font-variant:normal;font-weight:normal;font-stretch:normal;font-size:29.33333397px;line-height:1.25;font-family:Ubuntu;-inkscape-font-specification:'Ubuntu, Normal';font-variant-ligatures:normal;font-variant-caps:normal;font-variant-numeric:normal;font-feature-settings:normal;text-align:start;letter-spacing:0px;word-spacing:0px;writing-mode:lr-tb;text-anchor:start;fill:#000000;fill-opacity:1;stroke:none"
   xml:space="preserve"><tspan
     y="23.356972"
     x="34.067799"
     id="tspan31"
     sodipodi:role="line">ARTICLES</tspan></text>

</g>

<rect
   id="rect19"
   width="167.38359"
   height="38.979073"
   x="2.0239203"
   y="-6.93571"
   style="fill:none;stroke:#000000;stroke-width:1.02092731;stroke-opacity:1"
   ry="19.489536" /></svg>