<?xml version="1.0" encoding="UTF-8" standalone="no"?>
<svg
   xmlns:dc="http://purl.org/dc/elements/1.1/"
   xmlns:cc="http://creativecommons.org/ns#"
   xmlns:rdf="http://www.w3.org/1999/02/22-rdf-syntax-ns#"
   xmlns:svg="http://www.w3.org/2000/svg"
   xmlns="http://www.w3.org/2000/svg"
   xmlns:sodipodi="http://sodipodi.sourceforge.net/DTD/sodipodi-0.dtd"
   xmlns:inkscape="http://www.inkscape.org/namespaces/inkscape"
   height="256"
   id="log"
   viewBox="0 0 256 256"
   width="256"
   version="1.1"
   sodipodi:docname="button_log.svg"
   inkscape:version="0.92.5 (2060ec1f9f, 2020-04-08)"
   inkscape:export-filename="/home/marcelo/Desktop/button_log.png"
   inkscape:export-xdpi="96"
   inkscape:export-ydpi="96">
  <metadata
     id="metadata17">
    <rdf:RDF>
      <cc:Work
         rdf:about="">
        <dc:format>image/svg+xml</dc:format>
        <dc:type
           rdf:resource="http://purl.org/dc/dcmitype/StillImage" />
        <dc:title></dc:title>
      </cc:Work>
    </rdf:RDF>
  </metadata>
  <defs
     id="defs15" />
  <sodipodi:namedview
     pagecolor="#ffffff"
     bordercolor="#666666"
     borderopacity="1"
     objecttolerance="10"
     gridtolerance="10"
     guidetolerance="10"
     inkscape:pageopacity="0"
     inkscape:pageshadow="2"
     inkscape:window-width="1868"
     inkscape:window-height="1016"
     id="namedview13"
     showgrid="false"
     inkscape:zoom="1.84375"
     inkscape:cx="239.1697"
     inkscape:cy="3.0221639"
     inkscape:window-x="52"
     inkscape:window-y="27"
     inkscape:window-maximized="1"
     inkscape:current-layer="log"
     inkscape:showpageshadow="true"
     showborder="false" />
  <g
     id="g20"
     transform="translate(-3.0947611,7.4152129)"
     inkscape:export-xdpi="96"
     inkscape:export-ydpi="96">
    <g
       inkscape:export-ydpi="96"
       inkscape:export-xdpi="96"
       transform="matrix(0.09166665,0,0,0.09166665,62.333334,217.35146)"
       id="g10">
      <path
         inkscape:connector-curvature="0"
         id="path4"
         d="m 184,168 a 8.009,8.009 0 0 0 8,-8 v -48 a 8.009,8.009 0 0 0 -8,-8 H 48 a 8.009,8.009 0 0 0 -8,8 v 48 a 8.009,8.009 0 0 0 8,8 z m -50.284,-41.045 a 13.892,13.892 0 0 1 6.037,-5.865 16.292,16.292 0 0 1 7.541,-1.568 q 5.865,0 9.163,2.46 a 11.111,11.111 0 0 1 4.243,6.8 l -6.316,1.182 a 6.673,6.673 0 0 0 -2.5,-3.663 7.567,7.567 0 0 0 -4.587,-1.343 8.617,8.617 0 0 0 -6.628,2.643 q -2.46,2.643 -2.46,7.842 0,5.607 2.492,8.411 a 8.321,8.321 0 0 0 6.531,2.8 10.949,10.949 0 0 0 4.007,-0.784 13.722,13.722 0 0 0 3.448,-1.9 v -4 H 147.4 v -5.307 h 13.707 v 12.547 a 17.254,17.254 0 0 1 -5.79,3.405 21.079,21.079 0 0 1 -7.681,1.472 17.237,17.237 0 0 1 -8.615,-2.073 13.177,13.177 0 0 1 -5.521,-5.93 19.159,19.159 0 0 1 -1.848,-8.39 18.13,18.13 0 0 1 2.064,-8.739 z m -35.261,0.967 a 14.815,14.815 0 0 1 2.933,-4.318 12.267,12.267 0 0 1 4.071,-2.836 17.293,17.293 0 0 1 6.789,-1.246 q 6.961,0 11.14,4.318 4.179,4.318 4.179,12.01 0,7.627 -4.146,11.935 -4.146,4.308 -11.086,4.308 -7.025,0 -11.172,-4.286 Q 97.016,143.521 97.016,136 a 20.027,20.027 0 0 1 1.44,-8.078 z M 71.38,120.316 h 6.359 v 25.932 h 15.813 v 5.307 H 71.38 Z" />
      <path
         inkscape:connector-curvature="0"
         id="path6"
         d="m 112.313,146.656 a 7.981,7.981 0 0 0 6.241,-2.739 q 2.438,-2.739 2.438,-8.218 0,-5.414 -2.374,-8.078 a 8.8,8.8 0 0 0 -12.644,0.032 q -2.407,2.7 -2.406,8.132 0,5.35 2.471,8.11 a 8.049,8.049 0 0 0 6.274,2.761 z" />
      <path
         inkscape:connector-curvature="0"
         id="path8"
         d="M 200,8 H 64 A 16.018,16.018 0 0 0 48,24 v 72 h 8 V 24 a 8.009,8.009 0 0 1 8,-8 h 136 a 8.009,8.009 0 0 1 8,8 V 191.029 A 8.113,8.113 0 0 1 207.935,192 H 172 a 12.014,12.014 0 0 0 -12,12 v 35.935 A 8.113,8.113 0 0 1 159.029,240 H 64 a 8.009,8.009 0 0 1 -8,-8 v -56 h -8 v 56 a 16.018,16.018 0 0 0 16,16 h 95.029 a 15.9,15.9 0 0 0 11.314,-4.686 l 40.971,-40.971 A 15.9,15.9 0 0 0 216,191.029 V 24 A 16.018,16.018 0 0 0 200,8 Z" />
    </g>
    <text
       inkscape:export-ydpi="96"
       inkscape:export-xdpi="96"
       id="text21"
       y="239.76253"
       x="88.208572"
       style="font-style:normal;font-variant:normal;font-weight:normal;font-stretch:normal;font-size:29.33333397px;line-height:1.25;font-family:sans-serif;-inkscape-font-specification:'sans-serif, Normal';font-variant-ligatures:normal;font-variant-caps:normal;font-variant-numeric:normal;font-feature-settings:normal;text-align:start;letter-spacing:0px;word-spacing:0px;writing-mode:lr-tb;text-anchor:start;fill:#000000;fill-opacity:1;stroke:none"
       xml:space="preserve"><tspan
         style="font-style:normal;font-variant:normal;font-weight:normal;font-stretch:normal;font-size:29.33333397px;font-family:sans-serif;-inkscape-font-specification:'sans-serif, Normal';font-variant-ligatures:normal;font-variant-caps:normal;font-variant-numeric:normal;font-feature-settings:normal;text-align:start;writing-mode:lr-tb;text-anchor:start"
         y="239.76253"
         x="88.208572"
         id="tspan19"
         sodipodi:role="line">LEARNING LOG</tspan></text>
  </g>
  <rect
     style="fill:none;stroke:#000000;stroke-width:0.86272097;stroke-opacity:1"
     id="rect12"
     width="271.3237"
     height="39.13728"
     x="47.660175"
     y="216.93137"
     ry="19.56864"
     inkscape:export-xdpi="96"
     inkscape:export-ydpi="96" />
</svg>
