<?xml version="1.0" encoding="UTF-8" standalone="no"?>
<svg
   xmlns:dc="http://purl.org/dc/elements/1.1/"
   xmlns:cc="http://creativecommons.org/ns#"
   xmlns:rdf="http://www.w3.org/1999/02/22-rdf-syntax-ns#"
   xmlns:svg="http://www.w3.org/2000/svg"
   xmlns="http://www.w3.org/2000/svg"
   xmlns:sodipodi="http://sodipodi.sourceforge.net/DTD/sodipodi-0.dtd"
   xmlns:inkscape="http://www.inkscape.org/namespaces/inkscape"
   enable-background="new -0.709 -1.23 141.732 141.732"
   height="141.732px"
   id="Livello_1"
   version="1.1"
   viewBox="-0.709 -1.23 141.732 141.732"
   width="141.732px"
   xml:space="preserve"
   sodipodi:docname="button_home.svg"
   inkscape:version="0.92.5 (2060ec1f9f, 2020-04-08)"><metadata
     id="metadata11"><rdf:RDF><cc:Work
         rdf:about=""><dc:format>image/svg+xml</dc:format><dc:type
           rdf:resource="http://purl.org/dc/dcmitype/StillImage" /><dc:title></dc:title></cc:Work></rdf:RDF></metadata><defs
     id="defs9" /><sodipodi:namedview
     pagecolor="#ffffff"
     bordercolor="#666666"
     borderopacity="1"
     objecttolerance="10"
     gridtolerance="10"
     guidetolerance="10"
     inkscape:pageopacity="0"
     inkscape:pageshadow="2"
     inkscape:window-width="1868"
     inkscape:window-height="1016"
     id="namedview7"
     showgrid="false"
     showguides="true"
     inkscape:guide-bbox="true"
     inkscape:zoom="2.8284271"
     inkscape:cx="73.061428"
     inkscape:cy="54.145123"
     inkscape:window-x="52"
     inkscape:window-y="27"
     inkscape:window-maximized="1"
     inkscape:current-layer="Livello_1" /><g
     id="Livello_76"
     transform="matrix(0.20103822,0,0,0.20103822,-3.1819787,57.324567)"
     inkscape:export-xdpi="96"
     inkscape:export-ydpi="96"><path
       d="m 0,69.023 h 0.026 v -0.025 z m 136.448,-2.65 c 0,-0.77 -0.33,-1.461 -0.854,-1.942 L 72.026,0.836 C 71.555,0.336 70.894,0.02 70.157,0 V 0.095 C 69.42,0.113 68.759,0.43 68.288,0.93 L 4.72,64.521 C 4.197,65 3.866,65.695 3.866,66.461 c 0,1.467 1.188,2.65 2.65,2.65 h 15.067 v 12.529 57.629 h 35.078 v -40.47 c 0,-1.487 1.203,-2.696 2.688,-2.696 H 80.92 c 1.49,0 2.697,1.209 2.697,2.696 v 40.478 h 35.105 v -57.63 -12.604 -0.02 h 15.067 c 1.473,0 2.659,-1.185 2.659,-2.65 m 3.867,2.742 -0.027,-0.025 v 0.025 z"
       id="path2"
       inkscape:connector-curvature="0" /></g><g
     id="Livello_1_1_" /><text
     xml:space="preserve"
     style="font-style:normal;font-variant:normal;font-weight:normal;font-stretch:normal;font-size:37.33333206px;line-height:1.25;font-family:Ubuntu;-inkscape-font-specification:'Ubuntu, Normal';font-variant-ligatures:normal;font-variant-caps:normal;font-variant-numeric:normal;font-feature-settings:normal;text-align:start;letter-spacing:0px;word-spacing:0px;writing-mode:lr-tb;text-anchor:start;fill:#000000;fill-opacity:1;stroke:none"
     x="34.880051"
     y="84.279236"
     id="text4523"
     inkscape:export-xdpi="96"
     inkscape:export-ydpi="96"><tspan
       sodipodi:role="line"
       id="tspan4521"
       x="34.880051"
       y="84.279236">HOME</tspan></text>
</svg>