<?xml version="1.0" encoding="UTF-8" standalone="no"?>
<svg
   xmlns:dc="http://purl.org/dc/elements/1.1/"
   xmlns:cc="http://creativecommons.org/ns#"
   xmlns:rdf="http://www.w3.org/1999/02/22-rdf-syntax-ns#"
   xmlns:svg="http://www.w3.org/2000/svg"
   xmlns="http://www.w3.org/2000/svg"
   xmlns:sodipodi="http://sodipodi.sourceforge.net/DTD/sodipodi-0.dtd"
   xmlns:inkscape="http://www.inkscape.org/namespaces/inkscape"
   id="Layer_1"
   style="enable-background:new 0 0 512 512;"
   version="1.1"
   viewBox="0 0 512 512"
   xml:space="preserve"
   sodipodi:docname="button_portfolio.svg"
   inkscape:version="0.92.5 (2060ec1f9f, 2020-04-08)"><metadata
   id="metadata18"><rdf:RDF><cc:Work
       rdf:about=""><dc:format>image/svg+xml</dc:format><dc:type
         rdf:resource="http://purl.org/dc/dcmitype/StillImage" /><dc:title /></cc:Work></rdf:RDF></metadata><defs
   id="defs16" /><sodipodi:namedview
   pagecolor="#ffffff"
   bordercolor="#666666"
   borderopacity="1"
   objecttolerance="10"
   gridtolerance="10"
   guidetolerance="10"
   inkscape:pageopacity="0"
   inkscape:pageshadow="2"
   inkscape:window-width="1868"
   inkscape:window-height="1016"
   id="namedview14"
   showgrid="false"
   inkscape:zoom="3.6875"
   inkscape:cx="312.11892"
   inkscape:cy="250.61283"
   inkscape:window-x="52"
   inkscape:window-y="27"
   inkscape:window-maximized="1"
   inkscape:current-layer="Layer_1" />


<rect
   style="fill:#1befef;stroke:#ffffff;stroke-width:0.9262569;stroke-opacity:1;fill-opacity:1"
   id="rect30"
   width="206.44662"
   height="39.073742"
   x="209.59026"
   y="218.86143"
   ry="10"
   inkscape:export-xdpi="96"
   inkscape:export-ydpi="96" /><g
   id="g28"
   transform="translate(-0.83292271,3.5678026)"
   inkscape:export-xdpi="96"
   inkscape:export-ydpi="96"><text
   inkscape:export-ydpi="96"
   inkscape:export-xdpi="96"
   id="text22"
   y="245.00917"
   x="249.49155"
   style="font-style:normal;font-variant:normal;font-weight:normal;font-stretch:normal;font-size:29.33333397px;line-height:1.25;font-family:Ubuntu;-inkscape-font-specification:'Ubuntu, Normal';font-variant-ligatures:normal;font-variant-caps:normal;font-variant-numeric:normal;font-feature-settings:normal;text-align:start;letter-spacing:0px;word-spacing:0px;writing-mode:lr-tb;text-anchor:start;fill:#000000;fill-opacity:1;stroke:none"
   xml:space="preserve"><tspan
     style="font-style:normal;font-variant:normal;font-weight:normal;font-stretch:normal;font-size:29.33333397px;font-family:Ubuntu;-inkscape-font-specification:'Ubuntu, Normal';font-variant-ligatures:normal;font-variant-caps:normal;font-variant-numeric:normal;font-feature-settings:normal;text-align:start;writing-mode:lr-tb;text-anchor:start"
     y="245.00917"
     x="249.49155"
     id="tspan20"
     sodipodi:role="line">PORTFOLIO</tspan></text>

<g
   inkscape:export-ydpi="96"
   inkscape:export-xdpi="96"
   transform="matrix(0.45833333,0,0,0.45833333,219.23659,223.37217)"
   id="g111"><g
     id="Layer_1-3"><path
       inkscape:connector-curvature="0"
       d="M 14,1 H 1 v 48 h 13 2 33 V 1 H 16 Z m 0,46 H 3 V 3 H 14 Z M 16,9.931 C 19.612,9.477 22.477,6.612 22.931,3 H 40.07 C 40.523,6.612 43.388,9.477 47,9.931 V 40.07 c -3.612,0.453 -6.477,3.319 -6.931,6.931 H 22.931 C 22.478,43.389 19.612,40.524 16,40.07 Z m 0,32.159 c 2.507,0.423 4.486,2.403 4.91,4.91 H 16 Z M 42.09,47 C 42.513,44.493 44.493,42.514 47,42.09 V 47 Z M 47,7.91 C 44.493,7.486 42.514,5.507 42.09,3 H 47 Z M 20.91,3 C 20.486,5.507 18.507,7.486 16,7.91 V 3 Z"
       id="path80" /><rect
       height="2"
       width="7"
       x="5"
       y="42"
       id="rect82" /><rect
       height="2"
       width="7"
       x="5"
       y="38"
       id="rect84" /><rect
       height="2"
       width="7"
       x="5"
       y="34"
       id="rect86" /><path
       inkscape:connector-curvature="0"
       d="m 42,18 h -6 v -4 h -8 v 4 H 22 V 32 H 42 Z M 30,16 h 4 v 2 H 30 Z M 40,30 H 24 V 20 h 16 z"
       id="path88" /><rect
       height="2"
       width="2"
       x="31"
       y="23"
       id="rect90" /></g><g
     id="g93" /></g></g></svg>