<?xml version="1.0" encoding="UTF-8" standalone="no"?>
<svg
   xmlns:dc="http://purl.org/dc/elements/1.1/"
   xmlns:cc="http://creativecommons.org/ns#"
   xmlns:rdf="http://www.w3.org/1999/02/22-rdf-syntax-ns#"
   xmlns:svg="http://www.w3.org/2000/svg"
   xmlns="http://www.w3.org/2000/svg"
   xmlns:sodipodi="http://sodipodi.sourceforge.net/DTD/sodipodi-0.dtd"
   xmlns:inkscape="http://www.inkscape.org/namespaces/inkscape"
   enable-background="new 0 0 53.763 53.763"
   height="53.763px"
   id="Layer_1"
   version="1.1"
   viewBox="0 0 53.763 53.763"
   width="53.763px"
   xml:space="preserve"
   sodipodi:docname="css3.svg"
   inkscape:version="0.92.5 (2060ec1f9f, 2020-04-08)"><metadata
     id="metadata19"><rdf:RDF><cc:Work
         rdf:about=""><dc:format>image/svg+xml</dc:format><dc:type
           rdf:resource="http://purl.org/dc/dcmitype/StillImage" /><dc:title /></cc:Work></rdf:RDF></metadata><defs
     id="defs17" /><sodipodi:namedview
     pagecolor="#ffffff"
     bordercolor="#666666"
     borderopacity="1"
     objecttolerance="10"
     gridtolerance="10"
     guidetolerance="10"
     inkscape:pageopacity="0"
     inkscape:pageshadow="2"
     inkscape:window-width="1314"
     inkscape:window-height="704"
     id="namedview15"
     showgrid="false"
     inkscape:zoom="8.2187499"
     inkscape:cx="40.111123"
     inkscape:cy="42.798309"
     inkscape:window-x="52"
     inkscape:window-y="27"
     inkscape:window-maximized="1"
     inkscape:current-layer="Layer_1"
     showborder="false" /><g
     id="g17"
     transform="matrix(1.527807,0,0,1.527807,-8.8605444,-22.677065)"
     inkscape:export-xdpi="96"
     inkscape:export-ydpi="96"><polygon
       inkscape:export-ydpi="96"
       inkscape:export-xdpi="96"
       style="fill:#000000"
       transform="matrix(1.1904319,0,0,1.1904319,0,-10.254757)"
       id="polygon4"
       points="26.926,44.706 16.417,41.667 14.102,16.25 39.75,16.25 37.333,41.792 " /><polygon
       style="fill:#ffffff"
       inkscape:export-ydpi="96"
       inkscape:export-xdpi="96"
       transform="matrix(1.1904319,0,0,1.1904319,0,-10.254757)"
       id="polygon6"
       points="34.583,24.542 26.761,28.017 34.261,27.969 33.49,37.376 26.934,39.209 20.387,37.292 20.053,32.459 23.178,32.417 23.344,34.959 26.98,36.042 30.636,35.001 31.136,30.959 20.053,30.917 19.659,27.885 27.428,24.641 19.289,24.584 18.938,21.459 34.917,21.459 " /><polygon
       inkscape:export-ydpi="96"
       inkscape:export-xdpi="96"
       style="fill:#000000"
       transform="matrix(1.1904319,0,0,1.1904319,0,-10.254757)"
       id="polygon8"
       points="18.939,9.517 18.773,9.517 18.773,14.167 18.939,14.167 20.481,14.167 22.814,14.167 22.814,12.458 20.481,12.458 20.481,11.225 22.814,11.225 22.814,9.517 20.481,9.517 " /><polygon
       inkscape:export-ydpi="96"
       inkscape:export-xdpi="96"
       style="fill:#000000"
       transform="matrix(1.1904319,0,0,1.1904319,0,-10.254757)"
       id="polygon10"
       points="25.7,12.458 24.263,12.458 24.263,14.167 28.138,14.167 28.138,12.458 26.659,11.225 28.138,11.225 28.138,9.517 24.263,9.517 24.263,11.225 " /><polygon
       inkscape:export-ydpi="96"
       inkscape:export-xdpi="96"
       style="fill:#000000"
       transform="matrix(1.1904319,0,0,1.1904319,0,-10.254757)"
       id="polygon12"
       points="31.022,12.458 29.585,12.458 29.585,14.167 33.46,14.167 33.46,12.458 31.981,11.225 33.46,11.225 33.46,9.517 29.585,9.517 29.585,11.225 " /></g></svg>