<?xml version="1.0" encoding="UTF-8" standalone="no"?>
<svg
   xmlns:dc="http://purl.org/dc/elements/1.1/"
   xmlns:cc="http://creativecommons.org/ns#"
   xmlns:rdf="http://www.w3.org/1999/02/22-rdf-syntax-ns#"
   xmlns:svg="http://www.w3.org/2000/svg"
   xmlns="http://www.w3.org/2000/svg"
   xmlns:sodipodi="http://sodipodi.sourceforge.net/DTD/sodipodi-0.dtd"
   xmlns:inkscape="http://www.inkscape.org/namespaces/inkscape"
   height="512px"
   style="enable-background:new 0 0 512 512;"
   version="1.1"
   viewBox="0 0 512 512"
   width="512px"
   xml:space="preserve"
   id="svg62"
   sodipodi:docname="css3_color.svg"
   inkscape:version="0.92.5 (2060ec1f9f, 2020-04-08)"><metadata
     id="metadata68"><rdf:RDF><cc:Work
         rdf:about=""><dc:format>image/svg+xml</dc:format><dc:type
           rdf:resource="http://purl.org/dc/dcmitype/StillImage" /><dc:title /></cc:Work></rdf:RDF></metadata><defs
     id="defs66" /><sodipodi:namedview
     pagecolor="#ffffff"
     bordercolor="#666666"
     borderopacity="1"
     objecttolerance="10"
     gridtolerance="10"
     guidetolerance="10"
     inkscape:pageopacity="0"
     inkscape:pageshadow="2"
     inkscape:window-width="1314"
     inkscape:window-height="704"
     id="namedview64"
     showgrid="false"
     showborder="false"
     inkscape:zoom="8.21875"
     inkscape:cx="104.55401"
     inkscape:cy="47.765159"
     inkscape:window-x="52"
     inkscape:window-y="27"
     inkscape:window-maximized="1"
     inkscape:current-layer="svg62" /><g
     id="形状_1_19_"
     style="enable-background:new"
     transform="matrix(0.09565176,0,0,0.09565176,83.027307,439.96633)"
     inkscape:export-xdpi="96"
     inkscape:export-ydpi="96"><g
       id="形状_1"><g
         id="g4"><polygon
           points="255.999,486.501 389.402,450.579 420.191,117.07 91.809,117.07 122.593,450.579 "
           style="clip-rule:evenodd;fill:#1758a7;fill-rule:evenodd"
           id="polygon2" /></g></g></g><g
     id="形状_1_18_"
     style="enable-background:new"
     transform="matrix(0.09565176,0,0,0.09565176,83.027307,439.96633)"
     inkscape:export-xdpi="96"
     inkscape:export-ydpi="96"><g
       id="形状_1_1_"><g
         id="g10"><polygon
           points="256.298,457.933 364.257,428.863 389.175,144.084 255.997,144.084 255.997,457.852 "
           style="clip-rule:evenodd;fill:#379ad6;fill-rule:evenodd"
           id="polygon8" /></g></g></g><g
     id="形状_1_17_"
     style="enable-background:new"
     transform="matrix(0.09565176,0,0,0.09565176,83.027307,439.96633)"
     inkscape:export-xdpi="96"
     inkscape:export-ydpi="96"><g
       id="形状_1_2_"><g
         id="g16"><polygon
           points="210.981,361.197 208.28,328.479 166.861,328.479 172.263,391.644 256.001,416.637 256.001,372.43 255.623,372.537 255.551,372.558 "
           style="clip-rule:evenodd;fill:#e8e8e7;fill-rule:evenodd"
           id="polygon14" /></g></g></g><g
     id="形状_1_16_"
     style="enable-background:new"
     transform="matrix(0.09565176,0,0,0.09565176,83.027307,439.96633)"
     inkscape:export-xdpi="96"
     inkscape:export-ydpi="96"><g
       id="形状_1_3_"><g
         id="g22"><polygon
           points="256.12,306.911 305.622,306.965 302.445,359.419 256.12,372.47 256.001,372.504 256.001,416.591 256.12,416.627 256.153,416.637 340.114,392.114 351.007,266.782 256.001,266.782 256.001,306.911 "
           style="clip-rule:evenodd;fill:#fbfbfa;fill-rule:evenodd"
           id="polygon20" /></g></g></g><g
     id="形状_1_15_"
     style="enable-background:new"
     transform="matrix(0.09565176,0,0,0.09565176,83.027307,439.96633)"
     inkscape:export-xdpi="96"
     inkscape:export-ydpi="96"><g
       id="形状_1_4_"><g
         id="g28"><polygon
           points="164.159,306.931 256.001,306.937 256.001,266.782 161.002,266.782 164.154,306.869 "
           style="clip-rule:evenodd;fill:#e5e4e2;fill-rule:evenodd"
           id="polygon26" /></g></g></g><g
     id="形状_1_14_"
     style="enable-background:new"
     transform="matrix(0.09565176,0,0,0.09565176,83.027307,439.96633)"
     inkscape:export-xdpi="96"
     inkscape:export-ydpi="96"><g
       id="形状_1_5_"><g
         id="g34"><polygon
           points="256.001,266.681 256.001,226.617 161.008,266.782 255.768,266.782 "
           style="clip-rule:evenodd;fill:#eeeeee;fill-rule:evenodd"
           id="polygon32" /></g></g></g><g
     id="形状_1_13_"
     style="enable-background:new"
     transform="matrix(0.09565176,0,0,0.09565176,83.027307,439.96633)"
     inkscape:export-xdpi="96"
     inkscape:export-ydpi="96"><g
       id="形状_1_6_"><g
         id="g40"><polygon
           points="256.001,266.773 353.955,224.667 261.553,224.667 256.001,226.992 "
           style="clip-rule:evenodd;fill:#ffffff;fill-rule:evenodd"
           id="polygon38" /></g></g></g><g
     id="形状_1_12_"
     style="enable-background:new"
     transform="matrix(0.09565176,0,0,0.09565176,83.027307,439.96633)"
     inkscape:export-xdpi="96"
     inkscape:export-ydpi="96"><g
       id="形状_1_7_"><g
         id="g46"><polygon
           points="256.001,224.667 256.001,184.515 152.196,184.515 157.16,224.667 "
           style="clip-rule:evenodd;fill:#e7e7e6;fill-rule:evenodd"
           id="polygon44" /></g></g></g><g
     id="形状_1_11_"
     style="enable-background:new"
     transform="matrix(0.09565176,0,0,0.09565176,83.027307,439.96633)"
     inkscape:export-xdpi="96"
     inkscape:export-ydpi="96"><g
       id="形状_1_8_"><g
         id="g52"><path
           d="M 256.001,224.667 357.843,184.515 H 256.001 Z m 0.027,0 h 97.76 l 4.056,-40.152 z"
           style="clip-rule:evenodd;fill:#f8f8f7;fill-rule:evenodd"
           id="path50"
           inkscape:connector-curvature="0" /></g></g></g><g
     id="形状_1_10_"
     style="enable-background:new"
     transform="matrix(0.09565176,0,0,0.09565176,83.027307,439.96633)"
     inkscape:export-xdpi="96"
     inkscape:export-ydpi="96"><g
       id="形状_1_9_"><g
         id="g58"><path
           d="m 158.564,87.892 h 50.683 V 68.07 H 180.286 V 48.22 h 28.961 V 26.499 h -50.683 z m 72.343,-39.671 c 6.781,6.781 10.317,10.026 20.125,19.835 -5.732,0 -20.125,0.021 -20.125,0.019 v 19.817 h 50.687 V 68.07 L 261.348,48.22 h 20.246 V 26.499 h -50.687 c 0,0 0,10.902 0,21.722 z M 353.436,26.499 h -50.69 c 0,0 0,10.902 0,21.722 6.781,6.781 10.319,10.026 20.127,19.835 -5.73,0 -20.127,0.021 -20.127,0.019 v 19.817 h 50.69 V 68.07 L 333.189,48.22 h 20.247 z"
           style="clip-rule:evenodd;fill:#1b1b1b;fill-rule:evenodd"
           id="path56"
           inkscape:connector-curvature="0" /></g></g></g></svg>