<?xml version="1.0" encoding="UTF-8" standalone="no"?>
<svg
   xmlns:dc="http://purl.org/dc/elements/1.1/"
   xmlns:cc="http://creativecommons.org/ns#"
   xmlns:rdf="http://www.w3.org/1999/02/22-rdf-syntax-ns#"
   xmlns:svg="http://www.w3.org/2000/svg"
   xmlns="http://www.w3.org/2000/svg"
   xmlns:sodipodi="http://sodipodi.sourceforge.net/DTD/sodipodi-0.dtd"
   xmlns:inkscape="http://www.inkscape.org/namespaces/inkscape"
   height="512px"
   style="enable-background:new 0 0 512 512;"
   version="1.1"
   viewBox="0 0 512 512"
   width="512px"
   xml:space="preserve"
   id="svg26"
   sodipodi:docname="docker.svg"
   inkscape:version="0.92.5 (2060ec1f9f, 2020-04-08)"><metadata
     id="metadata32"><rdf:RDF><cc:Work
         rdf:about=""><dc:format>image/svg+xml</dc:format><dc:type
           rdf:resource="http://purl.org/dc/dcmitype/StillImage" /><dc:title></dc:title></cc:Work></rdf:RDF></metadata><defs
     id="defs30" /><sodipodi:namedview
     pagecolor="#ffffff"
     bordercolor="#666666"
     borderopacity="1"
     objecttolerance="10"
     gridtolerance="10"
     guidetolerance="10"
     inkscape:pageopacity="0"
     inkscape:pageshadow="2"
     inkscape:window-width="1314"
     inkscape:window-height="704"
     id="namedview28"
     showgrid="false"
     showborder="false"
     inkscape:zoom="8.21875"
     inkscape:cx="12.458177"
     inkscape:cy="63.382599"
     inkscape:window-x="52"
     inkscape:window-y="27"
     inkscape:window-maximized="1"
     inkscape:current-layer="svg26" /><g
     id="g49"
     inkscape:export-xdpi="96"
     inkscape:export-ydpi="96"><rect
       y="416.6174"
       x="-19.541822"
       height="64"
       width="64"
       id="rect34"
       style="opacity:1;fill:#ffffff;fill-opacity:1;stroke:none;stroke-width:0.00990541;stroke-miterlimit:4;stroke-dasharray:none;stroke-opacity:1" /><g
       transform="matrix(0.13913107,0,0,0.13913107,-23.159384,412.99985)"
       id="comp_x5F_97-docker"><g
         id="g22"><rect
           id="rect2"
           y="147.22501"
           x="229.99899"
           width="47.506001"
           height="43.193001" /><rect
           id="rect4"
           y="199.11501"
           x="229.99899"
           width="47.506001"
           height="42.689999" /><rect
           id="rect6"
           y="147.22501"
           x="173.869"
           width="47.506001"
           height="43.193001" /><rect
           id="rect8"
           y="199.043"
           x="286.20001"
           width="47.507"
           height="42.691002" /><rect
           id="rect10"
           y="94.974998"
           x="229.99899"
           width="47.506001"
           height="43.625" /><rect
           id="rect12"
           y="147.22501"
           x="117.738"
           width="47.505001"
           height="43.193001" /><rect
           id="rect14"
           y="199.043"
           x="173.869"
           width="47.506001"
           height="42.691002" /><path
           inkscape:connector-curvature="0"
           id="path16"
           d="m 476.441,219.095 c -10.35,-6.972 -34.21,-9.487 -52.537,-6.036 -2.371,-17.249 -12.003,-32.27 -29.538,-45.782 l -10.062,-6.685 -6.685,10.062 c -13.225,19.98 -16.817,52.896 -2.658,74.602 -6.252,3.377 -18.545,7.978 -34.786,7.689 H 27.757 c -6.252,36.511 4.169,83.945 31.624,116.501 26.663,31.551 66.623,47.579 118.872,47.579 113.124,0 196.851,-52.104 236.021,-146.76 15.381,0.288 48.584,0.073 65.618,-32.483 1.078,-1.797 4.743,-9.488 6.107,-12.291 z" /><polygon
           id="polygon18"
           points="61.68,241.734 109.186,241.734 109.186,199.043 109.113,199.043 61.68,199.043 " /><rect
           id="rect20"
           y="199.043"
           x="117.738"
           width="47.505001"
           height="42.691002" /></g></g></g><g
     id="Layer_1" /></svg>