<?xml version="1.0" encoding="UTF-8" standalone="no"?>
<svg
   xmlns:dc="http://purl.org/dc/elements/1.1/"
   xmlns:cc="http://creativecommons.org/ns#"
   xmlns:rdf="http://www.w3.org/1999/02/22-rdf-syntax-ns#"
   xmlns:svg="http://www.w3.org/2000/svg"
   xmlns="http://www.w3.org/2000/svg"
   xmlns:sodipodi="http://sodipodi.sourceforge.net/DTD/sodipodi-0.dtd"
   xmlns:inkscape="http://www.inkscape.org/namespaces/inkscape"
   enable-background="new 0 0 56.693 56.693"
   height="56.693px"
   id="Layer_1"
   version="1.1"
   viewBox="0 0 56.693 56.693"
   width="56.693px"
   xml:space="preserve"
   sodipodi:docname="html5.svg"
   inkscape:version="0.92.5 (2060ec1f9f, 2020-04-08)"><metadata
     id="metadata19"><rdf:RDF><cc:Work
         rdf:about=""><dc:format>image/svg+xml</dc:format><dc:type
           rdf:resource="http://purl.org/dc/dcmitype/StillImage" /><dc:title></dc:title></cc:Work></rdf:RDF></metadata><defs
     id="defs17" /><sodipodi:namedview
     pagecolor="#ffffff"
     bordercolor="#666666"
     borderopacity="1"
     objecttolerance="10"
     gridtolerance="10"
     guidetolerance="10"
     inkscape:pageopacity="0"
     inkscape:pageshadow="2"
     inkscape:window-width="1314"
     inkscape:window-height="704"
     id="namedview15"
     showgrid="false"
     showborder="false"
     inkscape:zoom="8.2187499"
     inkscape:cx="33.665775"
     inkscape:cy="34.288"
     inkscape:window-x="52"
     inkscape:window-y="27"
     inkscape:window-maximized="1"
     inkscape:current-layer="Layer_1" /><g
     id="g12"
     transform="matrix(1.3057494,0,0,1.3057494,-3.3476499,-16.634295)"
     inkscape:export-xdpi="96"
     inkscape:export-ydpi="96"><polygon
       enable-background="new    "
       points="18.382,9.799 18.382,12.018 20.598,12.018 20.598,5.391 18.382,5.391 18.382,7.581 16.356,7.581 16.356,5.391 14.141,5.391 14.141,12.018 16.356,12.018 16.356,9.799 "
       id="polygon2" /><polygon
       enable-background="new    "
       points="25.725,12.018 25.725,7.59 27.674,7.59 27.674,5.391 21.561,5.391 21.561,7.59 23.51,7.59 23.51,12.018 "
       id="polygon4" /><polygon
       enable-background="new    "
       points="32.338,11.09 32.375,11.09 33.898,8.735 33.898,12.018 36.105,12.018 36.105,5.391 33.795,5.391 32.375,7.723 30.955,5.391 28.646,5.391 28.646,12.018 30.812,12.018 30.812,8.735 "
       id="polygon6" /><polygon
       enable-background="new    "
       points="39.422,9.829 39.422,5.391 37.207,5.391 37.207,12.018 42.537,12.018 42.537,9.829 "
       id="polygon8" /><path
       d="M 10.949,14.926 14.117,50.458 28.338,54.405 42.57,50.46 45.744,14.926 H 10.949 Z m 27.922,11.62 H 28.346 22.194 l 0.398,4.463 h 5.754 10.129 l -1.195,13.383 -8.934,2.475 -0.006,0.002 -8.928,-2.477 -0.623,-7 h 4.374 l 0.324,3.631 4.854,1.312 0.006,-0.002 v 0 l 4.859,-1.312 0.506,-5.652 h -5.365 v 0 H 18.608 L 17.431,22.19 H 28.346 39.26 Z"
       enable-background="new    "
       id="path10"
       inkscape:connector-curvature="0" /></g></svg>