<?xml version="1.0" encoding="UTF-8" standalone="no"?>
<svg
   xmlns:dc="http://purl.org/dc/elements/1.1/"
   xmlns:cc="http://creativecommons.org/ns#"
   xmlns:rdf="http://www.w3.org/1999/02/22-rdf-syntax-ns#"
   xmlns:svg="http://www.w3.org/2000/svg"
   xmlns="http://www.w3.org/2000/svg"
   xmlns:sodipodi="http://sodipodi.sourceforge.net/DTD/sodipodi-0.dtd"
   xmlns:inkscape="http://www.inkscape.org/namespaces/inkscape"
   version="1"
   viewBox="0 0 50 50"
   id="svg10"
   sodipodi:docname="html5-css3-primeiros-passos.svg"
   inkscape:version="0.92.5 (2060ec1f9f, 2020-04-08)">
  <metadata
     id="metadata16">
    <rdf:RDF>
      <cc:Work
         rdf:about="">
        <dc:format>image/svg+xml</dc:format>
        <dc:type
           rdf:resource="http://purl.org/dc/dcmitype/StillImage" />
      </cc:Work>
    </rdf:RDF>
  </metadata>
  <defs
     id="defs14" />
  <sodipodi:namedview
     pagecolor="#ffffff"
     bordercolor="#666666"
     borderopacity="1"
     objecttolerance="10"
     gridtolerance="10"
     guidetolerance="10"
     inkscape:pageopacity="0"
     inkscape:pageshadow="2"
     inkscape:window-width="1314"
     inkscape:window-height="704"
     id="namedview12"
     showgrid="false"
     inkscape:zoom="4.72"
     inkscape:cx="25"
     inkscape:cy="25"
     inkscape:window-x="52"
     inkscape:window-y="27"
     inkscape:window-maximized="1"
     inkscape:current-layer="svg10" />
  <path
     d="M 40.697561,26.079675 41.681301,9.7138211 C 41.770732,7.9252033 40.339837,6.4943089 38.64065,6.4943089 H 6.6243902 c -1.7886178,0 -3.1300813,1.4308944 -3.0406504,3.2195122 L 5.3723577,38.957724 Z"
     id="path2"
     inkscape:connector-curvature="0"
     style="fill:#fe4365;stroke-width:0.89430892"
     inkscape:export-xdpi="96"
     inkscape:export-ydpi="96" />
  <path
     d="M 41.59187,12.039024 41.770732,9.803252 C 41.860163,8.0146341 40.429268,6.5837398 38.730081,6.5837398 H 6.6243902 c -1.7886178,0 -3.1300813,1.4308943 -3.0406504,3.2195122 l 0.9837399,15.739837 z"
     id="path4"
     inkscape:connector-curvature="0"
     style="fill:#e43c5a;stroke-width:0.89430892"
     inkscape:export-xdpi="96"
     inkscape:export-ydpi="96" />
  <path
     d="m 23.169106,49.6 c -0.447155,0 -0.98374,-0.08943 -1.430895,-0.268293 L 7.0715447,43.876423 C 5.5512195,43.339837 4.5674797,41.908943 4.4780488,40.299187 L 2.6,9.803252 C 2.6,8.7300813 2.9577236,7.6569106 3.7626016,6.8520325 4.5674797,6.0471545 5.5512195,5.6 6.7138211,5.6 H 38.730081 c 1.073171,0 2.146342,0.4471545 2.95122,1.2520325 0.804878,0.8048781 1.162601,1.8780488 1.073171,2.9512195 l -1.878049,30.585366 c 0,0.536585 -0.447155,0.894309 -0.98374,0.894309 -0.536585,0 -0.894309,-0.447155 -0.894309,-0.98374 L 40.697561,9.7138211 c 0,-0.5365853 -0.178862,-1.1626016 -0.536585,-1.5203252 C 39.713821,7.7463415 39.177236,7.5674797 38.64065,7.5674797 H 6.6243902 c -0.6260162,0 -1.1626016,0.2682927 -1.5203252,0.6260162 C 4.6569106,8.5512195 4.4780488,9.0878049 4.5674797,9.7138211 L 6.4455285,40.209756 c 0,0.894309 0.6260162,1.609756 1.3414634,1.878049 l 14.6666671,5.455284 c 0.447154,0.178862 1.07317,0.178862 1.520325,0 l 3.934959,-1.430894 c 0.447155,-0.178862 1.073171,0.08943 1.252033,0.536585 0.178861,0.536586 -0.08943,1.073171 -0.536586,1.252033 l -3.934959,1.430894 C 24.152846,49.510569 23.61626,49.6 23.169106,49.6 Z"
     id="path6"
     inkscape:connector-curvature="0"
     style="fill:#444444;stroke-width:0.89430892"
     inkscape:export-xdpi="96"
     inkscape:export-ydpi="96" />
  <path
     d="m 17.087805,34.217886 c -0.268293,0 -0.447155,-0.08943 -0.715447,-0.268293 l -4.829269,-4.829268 c -0.804878,-0.804878 -0.804878,-2.235772 0,-3.04065 l 4.829269,-4.829268 c 0.357723,-0.357724 0.98374,-0.357724 1.341463,0 0.357724,0.357723 0.357724,0.983739 0,1.341463 l -4.829268,4.829268 c -0.08943,0.08943 -0.08943,0.268293 0,0.357724 l 4.829268,4.829268 c 0.357724,0.357724 0.357724,0.98374 0,1.341463 -0.178862,0.178862 -0.447154,0.268293 -0.626016,0.268293 z m 11.089431,0 c -0.268293,0 -0.447155,-0.08943 -0.715447,-0.268293 -0.357724,-0.357723 -0.357724,-0.983739 0,-1.341463 l 4.829268,-4.829268 C 32.380488,27.689431 32.380488,27.6 32.380488,27.6 c 0,-0.08943 0,-0.08943 -0.08943,-0.178862 L 27.461789,22.59187 c -0.357724,-0.357724 -0.357724,-0.98374 0,-1.341463 0.357723,-0.357724 0.983739,-0.357724 1.341463,0 l 4.829268,4.829268 c 0.804878,0.804878 0.804878,2.235772 0,3.04065 l -4.739837,4.829268 c -0.178862,0.178862 -0.447155,0.268293 -0.715447,0.268293 z m -8.048781,3.666667 h -0.268292 c -0.536586,-0.178862 -0.804878,-0.626016 -0.715448,-1.162602 l 5.008131,-18.691057 c 0.178861,-0.536585 0.626016,-0.804878 1.162601,-0.715447 0.536586,0.178862 0.804878,0.626016 0.715447,1.162602 l -5.00813,18.691057 c -0.08943,0.447154 -0.447154,0.715447 -0.894309,0.715447 z"
     id="path8"
     inkscape:connector-curvature="0"
     style="fill:#444444;stroke-width:0.89430892"
     inkscape:export-xdpi="96"
     inkscape:export-ydpi="96" />
</svg>
