<?xml version="1.0" encoding="UTF-8" standalone="no"?>
<!-- Created with Inkscape (http://www.inkscape.org/) -->

<svg
   xmlns:dc="http://purl.org/dc/elements/1.1/"
   xmlns:cc="http://creativecommons.org/ns#"
   xmlns:rdf="http://www.w3.org/1999/02/22-rdf-syntax-ns#"
   xmlns:svg="http://www.w3.org/2000/svg"
   xmlns="http://www.w3.org/2000/svg"
   xmlns:sodipodi="http://sodipodi.sourceforge.net/DTD/sodipodi-0.dtd"
   xmlns:inkscape="http://www.inkscape.org/namespaces/inkscape"
   width="210mm"
   height="297mm"
   viewBox="0 0 210 297"
   version="1.1"
   id="svg8"
   inkscape:version="0.92.5 (2060ec1f9f, 2020-04-08)"
   sodipodi:docname="http.svg"
   inkscape:export-filename="/home/marcelo/Github/My-Learning-Tracker/img/http.png"
   inkscape:export-xdpi="96"
   inkscape:export-ydpi="96">
  <defs
     id="defs2" />
  <sodipodi:namedview
     id="base"
     pagecolor="#ffffff"
     bordercolor="#666666"
     borderopacity="1.0"
     inkscape:pageopacity="0.0"
     inkscape:pageshadow="2"
     inkscape:zoom="8.4530809"
     inkscape:cx="209.44788"
     inkscape:cy="342.49803"
     inkscape:document-units="mm"
     inkscape:current-layer="layer1"
     showgrid="false"
     showborder="false"
     inkscape:window-width="1314"
     inkscape:window-height="704"
     inkscape:window-x="52"
     inkscape:window-y="27"
     inkscape:window-maximized="1" />
  <metadata
     id="metadata5">
    <rdf:RDF>
      <cc:Work
         rdf:about="">
        <dc:format>image/svg+xml</dc:format>
        <dc:type
           rdf:resource="http://purl.org/dc/dcmitype/StillImage" />
        <dc:title></dc:title>
      </cc:Work>
    </rdf:RDF>
  </metadata>
  <g
     inkscape:label="Layer 1"
     inkscape:groupmode="layer"
     id="layer1">
    <path
       style="fill:#000000;stroke-width:0.02804215"
       d="m 50.809389,210.86779 c -0.574909,-0.0853 -1.104284,-0.57447 -1.261505,-1.16579 -0.02885,-0.10852 -0.03619,-1.05468 -0.03619,-4.66494 v -4.52881 l 0.06556,-0.18227 c 0.175359,-0.48754 0.527263,-0.83949 1.014062,-1.01421 l 0.182274,-0.0654 h 5.426157 c 4.343241,0 5.453325,0.007 5.56229,0.0362 0.542529,0.14425 1.001406,0.60312 1.145654,1.14565 0.02885,0.10852 0.03619,1.05212 0.03619,4.65092 v 4.51479 l -0.06555,0.1963 c -0.162586,0.48689 -0.509517,0.84127 -1.000052,1.02151 l -0.196294,0.0721 -5.356052,0.004 c -2.945828,0.002 -5.428273,-0.007 -5.516545,-0.0199 z m 10.845177,-0.91974 c 0.143996,-0.0654 0.288106,-0.20952 0.35352,-0.35352 0.0488,-0.10742 0.05127,-0.29253 0.05185,-3.89147 l 6.35e-4,-3.77868 h -5.832787 -5.832769 l 6.35e-4,3.77868 c 5.29e-4,3.59894 0.0031,3.78405 0.05185,3.89147 0.06541,0.144 0.209524,0.28811 0.35352,0.35352 0.107964,0.049 0.340205,0.0512 5.426779,0.0512 5.086574,0 5.318815,-0.002 5.42678,-0.0512 z m -4.931696,-2.24218 c -0.04172,-0.0461 -0.04641,-0.17738 -0.04641,-1.29962 0,-1.19655 0.0022,-1.25036 0.05399,-1.29719 0.04767,-0.0431 0.107583,-0.0478 0.51177,-0.0394 0.515446,0.0107 0.601461,0.0374 0.70917,0.22077 0.05239,0.0892 0.05708,0.14434 0.05708,0.67202 0,0.64914 -0.01252,0.69964 -0.202526,0.81707 -0.08847,0.0547 -0.15269,0.0671 -0.39327,0.076 l -0.287532,0.0106 v 0.39909 c 0,0.35101 -0.0062,0.40467 -0.05128,0.44549 -0.07218,0.0653 -0.2902,0.0623 -0.350983,-0.005 z m 0.817289,-1.32839 c 0.04681,-0.0468 0.04681,-0.78324 0,-0.83005 -0.01957,-0.0196 -0.113415,-0.0336 -0.224338,-0.0336 h -0.190686 v 0.44867 0.44867 h 0.190686 c 0.110923,0 0.204763,-0.0141 0.224338,-0.0336 z m 1.875549,0.88058 c -0.04234,-0.0468 -0.0293,-0.15515 0.181309,-1.50726 0.126251,-0.81052 0.244376,-1.48485 0.266257,-1.51995 0.03196,-0.0513 0.06467,-0.0631 0.174546,-0.0631 0.256039,0 0.256076,-0.0964 -6.35e-4,1.55721 -0.127831,0.82353 -0.243441,1.48477 -0.26583,1.52042 -0.03217,0.0512 -0.06505,0.0631 -0.17484,0.0631 -0.09453,0 -0.148945,-0.0152 -0.180836,-0.0504 z m 0.897774,5.3e-4 c -0.04177,-0.0462 -0.02806,-0.16029 0.181017,-1.50726 0.12783,-0.82354 0.243441,-1.48477 0.26583,-1.52043 0.03217,-0.0512 0.06505,-0.0631 0.174839,-0.0631 0.257143,0 0.257172,-0.0964 -4.23e-4,1.55767 -0.126252,0.81053 -0.244376,1.48485 -0.266256,1.51996 -0.03196,0.0513 -0.06467,0.0631 -0.174547,0.0631 -0.09406,0 -0.148975,-0.0152 -0.18041,-0.0499 z m -8.974706,-0.45002 c -0.0414,-0.0457 -0.04641,-0.16179 -0.04641,-1.07527 0,-1.16509 -0.0099,-1.11682 0.22921,-1.11682 0.204791,0 0.219464,0.0332 0.219464,0.49678 v 0.39421 l 0.287641,0.0106 c 0.329154,0.0122 0.443473,0.0591 0.538611,0.22104 0.0498,0.0848 0.05828,0.15554 0.06654,0.55494 0.01114,0.53919 8.46e-4,0.56575 -0.219775,0.56575 -0.207833,0 -0.224337,-0.0343 -0.224337,-0.4663 0,-0.24552 -0.01094,-0.37468 -0.03365,-0.3974 -0.01957,-0.0196 -0.113416,-0.0336 -0.224338,-0.0336 h -0.190687 v 0.40227 c 0,0.35409 -0.0061,0.40782 -0.05128,0.44867 -0.07218,0.0653 -0.290201,0.0623 -0.350984,-0.005 z m 2.491406,0.009 c -0.135284,-0.0479 -0.225635,-0.14587 -0.264939,-0.28739 -0.01606,-0.0578 -0.02926,-0.31017 -0.02935,-0.5608 l -1.06e-4,-0.45564 h -0.177928 c -0.218837,0 -0.270747,-0.0439 -0.270747,-0.22921 0,-0.17562 0.05506,-0.21946 0.275619,-0.21946 h 0.173056 v -0.17793 c 0,-0.21884 0.04395,-0.27075 0.229209,-0.27075 0.175625,0 0.219466,0.0551 0.219466,0.27562 v 0.17306 h 0.177927 c 0.218838,0 0.270747,0.0439 0.270747,0.22921 0,0.17562 -0.05506,0.21946 -0.275619,0.21946 h -0.173055 v 0.41502 c 0,0.28541 0.01051,0.42554 0.03365,0.44868 0.01851,0.0185 0.09858,0.0336 0.177928,0.0336 0.182252,0 0.237096,0.053 0.237096,0.22921 0,0.18063 -0.05321,0.21978 -0.296651,0.21824 -0.106747,-5.3e-4 -0.244563,-0.0191 -0.306255,-0.0409 z m 1.794698,0 c -0.135284,-0.0479 -0.225635,-0.14587 -0.264939,-0.28739 -0.01606,-0.0578 -0.02926,-0.31017 -0.02935,-0.5608 l -1.06e-4,-0.45564 h -0.177928 c -0.218837,0 -0.270747,-0.0439 -0.270747,-0.22921 0,-0.17562 0.05506,-0.21946 0.275619,-0.21946 h 0.173056 v -0.17793 c 0,-0.21884 0.04395,-0.27075 0.22921,-0.27075 0.175623,0 0.219465,0.0551 0.219465,0.27562 v 0.17306 h 0.177927 c 0.218838,0 0.270747,0.0439 0.270747,0.22921 0,0.17562 -0.05506,0.21946 -0.275619,0.21946 H 55.77916 v 0.41502 c 0,0.28541 0.01051,0.42554 0.03365,0.44868 0.01851,0.0185 0.09858,0.0336 0.177927,0.0336 0.182253,0 0.237097,0.053 0.237097,0.22921 0,0.18063 -0.05321,0.21978 -0.29665,0.21824 -0.106748,-5.3e-4 -0.244563,-0.0191 -0.306257,-0.0409 z m 2.892688,-0.009 c -0.06532,-0.0722 -0.06229,-0.2902 0.0049,-0.35098 0.07218,-0.0653 0.290201,-0.0623 0.350984,0.005 0.06532,0.0722 0.06229,0.2902 -0.0049,0.35098 -0.07218,0.0653 -0.290201,0.0623 -0.350984,-0.005 z m 0,-1.34602 c -0.06532,-0.0722 -0.06229,-0.2902 0.0049,-0.35098 0.07218,-0.0653 0.290201,-0.0623 0.350984,0.005 0.06532,0.0722 0.06229,0.2902 -0.0049,0.35098 -0.07218,0.0653 -0.290201,0.0623 -0.350984,-0.005 z m -0.563915,-4.50429 c 0.0648,-0.0648 0.06883,-0.087 0.06883,-0.37985 0,-0.29282 -0.004,-0.31504 -0.06883,-0.37984 -0.0648,-0.0648 -0.08702,-0.0688 -0.379844,-0.0688 -0.292821,0 -0.315038,0.004 -0.379843,0.0688 -0.06481,0.0648 -0.06883,0.087 -0.06883,0.37984 0,0.29282 0.004,0.31504 0.06883,0.37985 0.0648,0.0648 0.08702,0.0688 0.379843,0.0688 0.292822,0 0.31504,-0.004 0.379844,-0.0688 z m 1.794698,0 c 0.0648,-0.0648 0.06883,-0.087 0.06883,-0.37985 0,-0.29282 -0.004,-0.31504 -0.06883,-0.37984 -0.0648,-0.0648 -0.08702,-0.0688 -0.379844,-0.0688 -0.292821,0 -0.315038,0.004 -0.379843,0.0688 -0.0648,0.0648 -0.06883,0.087 -0.06883,0.37984 0,0.29282 0.004,0.31504 0.06883,0.37985 0.0648,0.0648 0.08702,0.0688 0.379843,0.0688 0.292823,0 0.315039,-0.004 0.379844,-0.0688 z m 1.794699,0 c 0.0648,-0.0648 0.06883,-0.087 0.06883,-0.37985 0,-0.29282 -0.004,-0.31504 -0.06883,-0.37984 -0.06481,-0.0648 -0.08702,-0.0688 -0.379844,-0.0688 -0.292823,0 -0.31504,0.004 -0.379844,0.0688 -0.0648,0.0648 -0.06883,0.087 -0.06883,0.37984 0,0.29282 0.004,0.31504 0.06883,0.37985 0.0648,0.0648 0.08702,0.0688 0.379844,0.0688 0.292821,0 0.315038,-0.004 0.379844,-0.0688 z"
       id="path40"
       inkscape:connector-curvature="0" />
  </g>
</svg>
