<?xml version="1.0" encoding="UTF-8" standalone="no"?>
<!-- Created with Inkscape (http://www.inkscape.org/) -->

<svg
   xmlns:dc="http://purl.org/dc/elements/1.1/"
   xmlns:cc="http://creativecommons.org/ns#"
   xmlns:rdf="http://www.w3.org/1999/02/22-rdf-syntax-ns#"
   xmlns:svg="http://www.w3.org/2000/svg"
   xmlns="http://www.w3.org/2000/svg"
   xmlns:sodipodi="http://sodipodi.sourceforge.net/DTD/sodipodi-0.dtd"
   xmlns:inkscape="http://www.inkscape.org/namespaces/inkscape"
   width="210mm"
   height="297mm"
   viewBox="0 0 210 297"
   version="1.1"
   id="svg8"
   inkscape:version="0.92.5 (2060ec1f9f, 2020-04-08)"
   sodipodi:docname="http.svg"
   inkscape:export-filename="/home/marcelo/Github/My-Learning-Tracker/img/http.png"
   inkscape:export-xdpi="96"
   inkscape:export-ydpi="96">
  <defs
     id="defs2" />
  <sodipodi:namedview
     id="base"
     pagecolor="#ffffff"
     bordercolor="#666666"
     borderopacity="1.0"
     inkscape:pageopacity="0.0"
     inkscape:pageshadow="2"
     inkscape:zoom="8.2186276"
     inkscape:cx="224.05224"
     inkscape:cy="357.46166"
     inkscape:document-units="mm"
     inkscape:current-layer="layer1"
     showgrid="false"
     showborder="false"
     inkscape:window-width="1314"
     inkscape:window-height="704"
     inkscape:window-x="52"
     inkscape:window-y="27"
     inkscape:window-maximized="1" />
  <metadata
     id="metadata5">
    <rdf:RDF>
      <cc:Work
         rdf:about="">
        <dc:format>image/svg+xml</dc:format>
        <dc:type
           rdf:resource="http://purl.org/dc/dcmitype/StillImage" />
        <dc:title />
      </cc:Work>
    </rdf:RDF>
  </metadata>
  <g
     inkscape:label="Layer 1"
     inkscape:groupmode="layer"
     id="layer1">
    <path
       style="fill:#000000;stroke-width:0.0407883"
       d="m 51.399237,210.85855 c -0.836225,-0.12407 -1.60622,-0.83559 -1.834903,-1.69568 -0.04196,-0.15785 -0.05264,-1.53407 -0.05264,-6.78532 v -6.58732 l 0.09536,-0.26511 c 0.255066,-0.70915 0.766923,-1.22107 1.474989,-1.47521 l 0.265124,-0.0951 h 7.892537 c 6.317397,0 7.932053,0.0102 8.090547,0.0527 0.789127,0.20982 1.45658,0.87726 1.666394,1.66639 0.04196,0.15784 0.05264,1.53034 0.05264,6.76492 v 6.56693 l -0.09534,0.28552 c -0.236487,0.7082 -0.741111,1.22366 -1.454611,1.48582 l -0.285517,0.10488 -7.790566,0.006 c -4.284811,0.003 -7.895615,-0.0102 -8.024009,-0.0289 z m 15.774692,-1.33779 c 0.209448,-0.0951 0.419061,-0.30476 0.514208,-0.51421 0.07098,-0.15625 0.07457,-0.4255 0.07542,-5.66028 l 9.24e-4,-5.49623 h -8.483994 -8.483968 l 9.23e-4,5.49623 c 7.7e-4,5.23478 0.0045,5.50403 0.07542,5.66028 0.09514,0.20945 0.30476,0.41906 0.514207,0.51421 0.157038,0.0713 0.49484,0.0745 7.893441,0.0745 7.398602,0 7.736404,-0.003 7.893443,-0.0745 z m -7.173325,-3.26133 c -0.06068,-0.0671 -0.06751,-0.25801 -0.06751,-1.89035 0,-1.74042 0.0032,-1.81869 0.07853,-1.88681 0.06934,-0.0627 0.156483,-0.0695 0.744388,-0.0573 0.749734,0.0156 0.874846,0.0544 1.031512,0.32111 0.0762,0.12975 0.08302,0.20995 0.08302,0.97748 0,0.9442 -0.01821,1.01765 -0.294581,1.18846 -0.128683,0.0796 -0.222093,0.0976 -0.572025,0.11054 l -0.418225,0.0154 v 0.58049 c 0,0.51056 -0.009,0.58861 -0.07459,0.64798 -0.104988,0.095 -0.422106,0.0906 -0.510517,-0.007 z m 1.188775,-1.93219 c 0.06809,-0.0681 0.06809,-1.13925 0,-1.20734 -0.02847,-0.0285 -0.164966,-0.0489 -0.326307,-0.0489 h -0.27736 v 0.6526 0.65261 h 0.27736 c 0.161341,0 0.297835,-0.0205 0.326307,-0.0489 z m 2.728053,1.28083 c -0.06159,-0.0681 -0.04262,-0.22567 0.26372,-2.19236 0.183636,-1.17893 0.355453,-2.15977 0.38728,-2.21082 0.04649,-0.0746 0.09407,-0.0918 0.253883,-0.0918 0.372418,0 0.372472,-0.14022 -9.23e-4,2.26501 -0.185935,1.19786 -0.354094,2.15965 -0.386659,2.21151 -0.04679,0.0745 -0.09462,0.0918 -0.254311,0.0918 -0.137498,0 -0.216646,-0.0221 -0.263033,-0.0733 z m 1.305843,7.7e-4 c -0.06076,-0.0672 -0.04081,-0.23315 0.263296,-2.19236 0.185933,-1.19787 0.354094,-2.15965 0.386659,-2.21152 0.04679,-0.0745 0.09462,-0.0918 0.25431,-0.0918 0.374023,0 0.374065,-0.14022 -6.16e-4,2.26568 -0.183638,1.17895 -0.355453,2.15977 -0.387278,2.21084 -0.04649,0.0746 -0.09406,0.0918 -0.253885,0.0918 -0.136814,0 -0.21669,-0.0221 -0.262413,-0.0726 z m -13.054026,-0.65457 c -0.06022,-0.0665 -0.06751,-0.23533 -0.06751,-1.56402 0,-1.69466 -0.0144,-1.62445 0.333394,-1.62445 0.297876,0 0.319218,0.0483 0.319218,0.72258 v 0.5734 l 0.418384,0.0154 c 0.478766,0.0178 0.645047,0.086 0.783429,0.32151 0.07244,0.12335 0.08477,0.22624 0.09678,0.80718 0.0162,0.78427 0.0012,0.82291 -0.319671,0.82291 -0.3023,0 -0.326306,-0.0499 -0.326306,-0.67825 0,-0.35712 -0.01591,-0.54499 -0.04894,-0.57803 -0.02847,-0.0285 -0.164967,-0.0489 -0.326307,-0.0489 h -0.277361 v 0.58512 c 0,0.51504 -0.0089,0.59319 -0.07459,0.65261 -0.104988,0.095 -0.422108,0.0906 -0.510519,-0.007 z m 3.623838,0.0131 c -0.196775,-0.0697 -0.328194,-0.21217 -0.385363,-0.41802 -0.02336,-0.0841 -0.04256,-0.45115 -0.04269,-0.8157 l -1.54e-4,-0.66274 h -0.258802 c -0.318307,0 -0.393811,-0.0639 -0.393811,-0.3334 0,-0.25544 0.08009,-0.31921 0.400897,-0.31921 h 0.251716 v -0.25881 c 0,-0.31831 0.06393,-0.39381 0.333393,-0.39381 0.255452,0 0.319221,0.0801 0.319221,0.4009 v 0.25172 h 0.258801 c 0.318307,0 0.393811,0.0638 0.393811,0.33339 0,0.25545 -0.08009,0.31922 -0.400898,0.31922 h -0.251714 v 0.60366 c 0,0.41514 0.01529,0.61896 0.04894,0.65262 0.02692,0.0269 0.143388,0.0489 0.258802,0.0489 0.265092,0 0.344865,0.0771 0.344865,0.33339 0,0.26274 -0.0774,0.31968 -0.431489,0.31744 -0.155268,-7.7e-4 -0.355726,-0.0278 -0.445459,-0.0595 z m 2.610452,0 c -0.196776,-0.0697 -0.328195,-0.21217 -0.385364,-0.41802 -0.02336,-0.0841 -0.04256,-0.45115 -0.04269,-0.8157 l -1.54e-4,-0.66274 h -0.258803 c -0.318306,0 -0.393811,-0.0639 -0.393811,-0.3334 0,-0.25544 0.08009,-0.31921 0.400898,-0.31921 h 0.251716 v -0.25881 c 0,-0.31831 0.06393,-0.39381 0.333394,-0.39381 0.25545,0 0.319219,0.0801 0.319219,0.4009 v 0.25172 h 0.258801 c 0.318308,0 0.393811,0.0638 0.393811,0.33339 0,0.25545 -0.08009,0.31922 -0.400897,0.31922 h -0.251715 v 0.60366 c 0,0.41514 0.01529,0.61896 0.04895,0.65262 0.02692,0.0269 0.143388,0.0489 0.258801,0.0489 0.265094,0 0.344866,0.0771 0.344866,0.33339 0,0.26274 -0.07739,0.31968 -0.431487,0.31744 -0.155269,-7.7e-4 -0.355726,-0.0278 -0.445462,-0.0595 z m 4.207516,-0.0131 c -0.09501,-0.10502 -0.0906,-0.4221 0.0071,-0.51051 0.104989,-0.095 0.422108,-0.0906 0.510519,0.007 0.09501,0.10502 0.0906,0.42211 -0.0071,0.51051 -0.104989,0.095 -0.422108,0.0906 -0.510519,-0.007 z m 0,-1.95783 c -0.09501,-0.10502 -0.0906,-0.42211 0.0071,-0.51051 0.104989,-0.095 0.422108,-0.0906 0.510519,0.007 0.09501,0.10502 0.0906,0.4221 -0.0071,0.51051 -0.104989,0.095 -0.422108,0.0906 -0.510519,-0.007 z m -0.820234,-6.55165 c 0.09425,-0.0943 0.100116,-0.12655 0.100116,-0.55251 0,-0.42591 -0.0058,-0.45823 -0.100116,-0.55249 -0.09425,-0.0942 -0.126574,-0.10007 -0.552497,-0.10007 -0.425918,0 -0.458233,0.006 -0.552495,0.10007 -0.09427,0.0943 -0.100115,0.12655 -0.100115,0.55249 0,0.42592 0.0058,0.45824 0.100115,0.55251 0.09425,0.0942 0.126574,0.10007 0.552495,0.10007 0.42592,0 0.458237,-0.006 0.552497,-0.10007 z m 2.610451,0 c 0.09425,-0.0943 0.100116,-0.12655 0.100116,-0.55251 0,-0.42591 -0.0058,-0.45823 -0.100116,-0.55249 -0.09425,-0.0942 -0.126573,-0.10007 -0.552496,-0.10007 -0.425918,0 -0.458234,0.006 -0.552495,0.10007 -0.09425,0.0943 -0.100116,0.12655 -0.100116,0.55249 0,0.42592 0.0058,0.45824 0.100116,0.55251 0.09425,0.0942 0.126574,0.10007 0.552495,0.10007 0.425921,0 0.458235,-0.006 0.552496,-0.10007 z m 2.610453,0 c 0.09425,-0.0943 0.100116,-0.12655 0.100116,-0.55251 0,-0.42591 -0.0058,-0.45823 -0.100116,-0.55249 -0.09427,-0.0942 -0.126573,-0.10007 -0.552496,-0.10007 -0.425921,0 -0.458237,0.006 -0.552497,0.10007 -0.09425,0.0943 -0.100115,0.12655 -0.100115,0.55249 0,0.42592 0.0058,0.45824 0.100115,0.55251 0.09425,0.0942 0.126574,0.10007 0.552497,0.10007 0.425918,0 0.458234,-0.006 0.552496,-0.10007 z"
       id="path40"
       inkscape:connector-curvature="0"
       inkscape:export-xdpi="96"
       inkscape:export-ydpi="96" />
  </g>
</svg>
