<?xml version="1.0" encoding="UTF-8" standalone="no"?>
<svg
   xmlns:dc="http://purl.org/dc/elements/1.1/"
   xmlns:cc="http://creativecommons.org/ns#"
   xmlns:rdf="http://www.w3.org/1999/02/22-rdf-syntax-ns#"
   xmlns:svg="http://www.w3.org/2000/svg"
   xmlns="http://www.w3.org/2000/svg"
   xmlns:sodipodi="http://sodipodi.sourceforge.net/DTD/sodipodi-0.dtd"
   xmlns:inkscape="http://www.inkscape.org/namespaces/inkscape"
   height="512px"
   style="enable-background:new 0 0 512 512;"
   version="1.1"
   viewBox="0 0 512 512"
   width="512px"
   xml:space="preserve"
   id="svg12"
   sodipodi:docname="js_color.svg"
   inkscape:version="0.92.5 (2060ec1f9f, 2020-04-08)"><metadata
     id="metadata18"><rdf:RDF><cc:Work
         rdf:about=""><dc:format>image/svg+xml</dc:format><dc:type
           rdf:resource="http://purl.org/dc/dcmitype/StillImage" /><dc:title></dc:title></cc:Work></rdf:RDF></metadata><defs
     id="defs16" /><sodipodi:namedview
     pagecolor="#ffffff"
     bordercolor="#666666"
     borderopacity="1"
     objecttolerance="10"
     gridtolerance="10"
     guidetolerance="10"
     inkscape:pageopacity="0"
     inkscape:pageshadow="2"
     inkscape:window-width="1314"
     inkscape:window-height="704"
     id="namedview14"
     showgrid="false"
     showborder="false"
     inkscape:zoom="11.954546"
     inkscape:cx="48.001905"
     inkscape:cy="48.001018"
     inkscape:window-x="52"
     inkscape:window-y="27"
     inkscape:window-maximized="1"
     inkscape:current-layer="svg12" /><g
     id="_x31_87-js"
     transform="matrix(0.09565259,0,0,0.09565259,23.514842,439.51192)"
     inkscape:export-xdpi="96"
     inkscape:export-ydpi="96"><g
       id="g8"><rect
         height="459.99799"
         style="fill:#f0db4f"
         width="459.996"
         x="26.002001"
         y="26.000999"
         id="rect2" /><path
         d="m 276.331,384.759 c 0,44.767 -26.286,65.2 -64.586,65.2 -34.601,0 -54.623,-17.865 -64.892,-39.529 l 35.218,-21.255 c 6.777,12.013 12.938,22.177 27.826,22.177 14.169,0 23.207,-5.544 23.207,-27.208 V 237.21 h 43.227 v 147.549 z"
         style="fill:#323330"
         id="path4"
         inkscape:connector-curvature="0" /><path
         d="m 378.598,449.959 c -40.147,0 -66.124,-19.099 -78.754,-44.151 l 35.219,-20.332 c 9.241,15.095 21.356,26.286 42.611,26.286 17.866,0 29.364,-8.932 29.364,-21.355 0,-14.787 -11.704,-20.021 -31.52,-28.75 l -10.781,-4.62 c -31.214,-13.246 -51.853,-29.983 -51.853,-65.2 0,-32.447 24.745,-57.09 63.248,-57.09 27.518,0 47.232,9.549 61.402,34.603 l -33.679,21.562 c -7.392,-13.246 -15.401,-18.481 -27.825,-18.481 -12.63,0 -20.639,8.01 -20.639,18.481 0,12.938 8.009,18.176 26.594,26.285 l 10.78,4.621 c 36.759,15.71 57.397,31.832 57.397,67.974 0.002,38.81 -30.597,60.167 -71.564,60.167 z"
         style="fill:#323330"
         id="path6"
         inkscape:connector-curvature="0" /></g></g><g
     id="Layer_1"
     inkscape:export-xdpi="96"
     inkscape:export-ydpi="96" /></svg>