<?xml version="1.0" encoding="UTF-8" standalone="no"?>
<svg
   xmlns:dc="http://purl.org/dc/elements/1.1/"
   xmlns:cc="http://creativecommons.org/ns#"
   xmlns:rdf="http://www.w3.org/1999/02/22-rdf-syntax-ns#"
   xmlns:svg="http://www.w3.org/2000/svg"
   xmlns="http://www.w3.org/2000/svg"
   xmlns:sodipodi="http://sodipodi.sourceforge.net/DTD/sodipodi-0.dtd"
   xmlns:inkscape="http://www.inkscape.org/namespaces/inkscape"
   height="1024"
   width="1024"
   version="1.1"
   id="svg4"
   sodipodi:docname="markdown.svg"
   inkscape:version="0.92.5 (2060ec1f9f, 2020-04-08)">
  <metadata
     id="metadata10">
    <rdf:RDF>
      <cc:Work
         rdf:about="">
        <dc:format>image/svg+xml</dc:format>
        <dc:type
           rdf:resource="http://purl.org/dc/dcmitype/StillImage" />
        <dc:title></dc:title>
      </cc:Work>
    </rdf:RDF>
  </metadata>
  <defs
     id="defs8" />
  <sodipodi:namedview
     pagecolor="#ffffff"
     bordercolor="#666666"
     borderopacity="1"
     objecttolerance="10"
     gridtolerance="10"
     guidetolerance="10"
     inkscape:pageopacity="0"
     inkscape:pageshadow="2"
     inkscape:window-width="1314"
     inkscape:window-height="704"
     id="namedview6"
     showgrid="false"
     showborder="false"
     inkscape:zoom="8.21875"
     inkscape:cx="-19.061479"
     inkscape:cy="120.79419"
     inkscape:window-x="52"
     inkscape:window-y="27"
     inkscape:window-maximized="1"
     inkscape:current-layer="svg4" />
  <rect
     style="opacity:1;fill:none;fill-opacity:1;stroke:none;stroke-width:0.10008565;stroke-miterlimit:4;stroke-dasharray:none;stroke-opacity:1"
     id="rect12"
     width="63.890514"
     height="64"
     x="-51.006737"
     y="871.20581"
     inkscape:export-xdpi="96"
     inkscape:export-ydpi="96" />
  <path
     d="M 8.3231498,883.17154 H -46.446104 c -2.544937,0 -4.615375,2.07399 -4.615375,4.62328 v 30.82199 c 0,2.54941 2.070438,4.62328 4.615375,4.62328 H 8.3231498 c 2.5450542,0 4.6153712,-2.07387 4.6153712,-4.62328 v -30.82199 c 0,-2.54929 -2.070317,-4.62328 -4.6153712,-4.62328 z m -23.3846288,32.04702 -8,0.008 V 903.206 l -6,7.70549 -6,-7.70549 v 12.02056 h -8 v -24.04113 h 8 l 6,8.01371 6,-8.01371 8,-0.008 z m 11.943183,2.00342 -9.943183,-14.01616 h 6.0000008 v -12.02057 h 7.99999997 v 12.02057 H 6.9385218 Z"
     id="path2"
     inkscape:connector-curvature="0"
     style="stroke-width:0.06255353"
     inkscape:export-xdpi="96"
     inkscape:export-ydpi="96" />
</svg>
