<?xml version="1.0" encoding="UTF-8" standalone="no"?>
<svg
   xmlns:dc="http://purl.org/dc/elements/1.1/"
   xmlns:cc="http://creativecommons.org/ns#"
   xmlns:rdf="http://www.w3.org/1999/02/22-rdf-syntax-ns#"
   xmlns:svg="http://www.w3.org/2000/svg"
   xmlns="http://www.w3.org/2000/svg"
   xmlns:sodipodi="http://sodipodi.sourceforge.net/DTD/sodipodi-0.dtd"
   xmlns:inkscape="http://www.inkscape.org/namespaces/inkscape"
   inkscape:version="1.0 (6e3e5246a0, 2020-05-07)"
   sodipodi:docname="network.svg"
   id="svg4"
   version="1.1"
   viewBox="0 0 20 20">
  <metadata
     id="metadata10">
    <rdf:RDF>
      <cc:Work
         rdf:about="">
        <dc:format>image/svg+xml</dc:format>
        <dc:type
           rdf:resource="http://purl.org/dc/dcmitype/StillImage" />
        <dc:title></dc:title>
      </cc:Work>
    </rdf:RDF>
  </metadata>
  <defs
     id="defs8" />
  <sodipodi:namedview
     inkscape:current-layer="svg4"
     inkscape:window-maximized="1"
     inkscape:window-y="27"
     inkscape:window-x="52"
     inkscape:cy="32"
     inkscape:cx="32"
     inkscape:zoom="13.015625"
     showborder="false"
     showgrid="false"
     id="namedview6"
     inkscape:window-height="1016"
     inkscape:window-width="1868"
     inkscape:pageshadow="2"
     inkscape:pageopacity="0"
     guidetolerance="10"
     gridtolerance="10"
     objecttolerance="10"
     borderopacity="1"
     bordercolor="#666666"
     pagecolor="#ffffff" />
  <path
     inkscape:export-ydpi="96"
     inkscape:export-xdpi="96"
     style="stroke-width:3.2"
     id="path2"
     d="M 32,64 A 32,32 0 1 1 32,0 32,32 0 0 1 32,64 Z M 56.8,38.4 a 25.632,25.632 0 0 0 0,-12.8 H 44.576 a 92.192,92.192 0 0 1 0,12.8 z m -2.624,6.4 H 43.872 A 46.208,46.208 0 0 1 40.832,56.032 25.696,25.696 0 0 0 54.176,44.8 Z m -28.32,-6.4 h 12.288 a 78.752,78.752 0 0 0 0,-12.8 H 25.856 a 78.752,78.752 0 0 0 0,12.8 z m 0.8,6.4 c 1.312,7.68 3.616,12.8 5.344,12.8 1.728,0 4.032,-5.12 5.344,-12.8 z M 7.2,38.4 h 12.224 a 92.192,92.192 0 0 1 0,-12.8 H 7.2 a 25.632,25.632 0 0 0 0,12.8 z m 2.624,6.4 A 25.696,25.696 0 0 0 23.168,56.032 C 21.824,52.96 20.8,49.12 20.128,44.8 Z M 54.176,19.2 A 25.696,25.696 0 0 0 40.832,7.968 c 1.344,3.072 2.368,6.912 3.04,11.232 z m -27.52,0 H 37.344 C 36.032,11.52 33.728,6.4 32,6.4 c -1.728,0 -4.032,5.12 -5.344,12.8 z m -16.832,0 h 10.304 c 0.64,-4.32 1.696,-8.16 3.04,-11.232 A 25.696,25.696 0 0 0 9.824,19.2 Z" />
</svg>
