<?xml version="1.0" encoding="UTF-8" standalone="no"?>
<svg
   xmlns:dc="http://purl.org/dc/elements/1.1/"
   xmlns:cc="http://creativecommons.org/ns#"
   xmlns:rdf="http://www.w3.org/1999/02/22-rdf-syntax-ns#"
   xmlns:svg="http://www.w3.org/2000/svg"
   xmlns="http://www.w3.org/2000/svg"
   xmlns:sodipodi="http://sodipodi.sourceforge.net/DTD/sodipodi-0.dtd"
   xmlns:inkscape="http://www.inkscape.org/namespaces/inkscape"
   inkscape:version="1.0 (6e3e5246a0, 2020-05-07)"
   sodipodi:docname="redes-introducao.svg"
   id="svg8"
   viewBox="0 0 50 50"
   version="1">
  <metadata
     id="metadata14">
    <rdf:RDF>
      <cc:Work
         rdf:about="">
        <dc:format>image/svg+xml</dc:format>
        <dc:type
           rdf:resource="http://purl.org/dc/dcmitype/StillImage" />
        <dc:title></dc:title>
      </cc:Work>
    </rdf:RDF>
  </metadata>
  <defs
     id="defs12" />
  <sodipodi:namedview
     inkscape:current-layer="svg8"
     inkscape:window-maximized="1"
     inkscape:window-y="27"
     inkscape:window-x="52"
     inkscape:cy="23.701218"
     inkscape:cx="23.697202"
     inkscape:zoom="18.931818"
     showborder="false"
     showgrid="false"
     id="namedview10"
     inkscape:window-height="1016"
     inkscape:window-width="1868"
     inkscape:pageshadow="2"
     inkscape:pageopacity="0"
     guidetolerance="10"
     gridtolerance="10"
     objecttolerance="10"
     borderopacity="1"
     bordercolor="#666666"
     pagecolor="#ffffff" />
  <path
     inkscape:export-ydpi="96"
     inkscape:export-xdpi="96"
     style="stroke-width:0.944231"
     id="path2"
     d="m 10.593789,40.020748 33.593857,-12.22685 c 0.254943,-1.303983 0.3928,-2.650457 0.3928,-4.029034 0,-11.533784 -9.349777,-20.8835615 -20.883561,-20.8835615 -11.533784,0 -20.8835612,9.3497775 -20.8835612,20.8835615 0,6.569961 3.0366475,12.427971 7.7804652,16.255884 z"
     fill="#a6c1c2" />
  <path
     inkscape:export-ydpi="96"
     inkscape:export-xdpi="96"
     style="stroke-width:0.944231"
     id="path4"
     d="M 34.964396,6.2843118 A 20.78064,20.78064 0 0 0 23.54392,2.8813025 c -9.430037,0 -17.3974601,6.2517548 -19.990319,14.8357605 z"
     fill="#b9d7d9" />
  <path
     inkscape:export-ydpi="96"
     inkscape:export-xdpi="96"
     style="stroke-width:0.944231"
     id="path6"
     d="M 22.364575,1.7406713 C 11.640941,2.3742504 2.7736661,10.883662 1.7397329,21.575192 0.56322085,33.732168 9.307746,44.321721 21.143684,45.682358 l 0.128415,0.01416 c 0.03588,0.0028 0.07082,0.0047 0.10481,0.0047 0.474004,0 0.858306,-0.296489 1.031101,-0.720448 a 0.69495416,0.69495416 0 0 0 0.102921,-0.666628 l -3.514429,-9.193979 a 2.7005012,2.7005012 0 0 0 1.11797,-2.184007 c 0,-0.910238 -0.452287,-1.710946 -1.140631,-2.202891 a 54.128998,54.128998 0 0 1 2.742047,-5.813631 c 0.222839,0.05949 0.453231,0.101032 0.694954,0.101032 a 2.7005012,2.7005012 0 0 0 2.342638,-1.369135 c 2.219887,0.653408 4.457715,1.544762 6.713484,2.641959 a 2.7042781,2.7042781 0 0 0 2.232162,3.223605 c 0.197345,1.982886 0.347477,4.029035 0.439068,6.154499 0.017,0.379581 0.330481,0.677958 0.707229,0.677958 l 0.03116,-9.44e-4 a 0.7081734,0.7081734 0 0 0 0.677014,-0.737445 c -0.09253,-2.154735 -0.2455,-4.230155 -0.445677,-6.243256 0.338035,-0.132193 0.643022,-0.328593 0.898908,-0.576925 1.583476,0.966892 4.989318,3.419061 6.470817,4.49454 a 0.80259652,0.80259652 0 0 0 1.164237,-0.246444 l 0.336146,-0.570316 a 21.915606,21.915606 0 0 0 1.782708,-8.702035 c 0,-12.609263 -10.62921,-22.78052146 -23.39616,-22.0260807 z M 35.48089,8.0113106 C 34.02583,8.7062648 32.535833,9.6835441 31.046781,10.905379 A 43.736789,43.736789 0 0 0 28.034683,4.5592014 19.586188,19.586188 0 0 1 35.48089,8.0113106 Z M 23.696885,4.0615915 c 0.844143,0 1.671289,0.070817 2.488049,0.1746828 1.424845,2.2727645 2.664621,4.8250214 3.714606,7.6548827 -2.300147,2.085806 -4.569135,4.74665 -6.670994,7.845617 a 2.6891704,2.6891704 0 0 0 -0.81676,-0.138802 2.7052224,2.7052224 0 0 0 -2.434228,1.538152 34.332246,34.332246 0 0 0 -4.346296,-0.339923 2.7099435,2.7099435 0 0 0 -2.64668,-2.134907 c -0.09159,0 -0.178459,0.01794 -0.268161,0.02738 l -3.2538211,-8.5113 C 13.053511,6.4183926 18.100427,4.0615915 23.696885,4.0615915 Z M 4.0530993,22.599683 a 19.598463,19.598463 0 0 1 4.3491289,-11.23163 l 2.9894358,7.821067 a 2.6938916,2.6938916 0 0 0 -1.091531,1.927175 35.907224,35.907224 0 0 0 -6.2470337,1.483388 z M 4.0096647,24.10762 C 6.179508,23.359789 8.3540724,22.822521 10.537135,22.519423 a 2.7042781,2.7042781 0 0 0 2.447447,1.563647 c 0.09159,0 0.17846,-0.01794 0.267218,-0.02738 l 2.55981,6.695544 a 2.7005012,2.7005012 0 0 0 -1.117969,2.184006 c 0,0.963116 0.506108,1.804426 1.263381,2.28504 A 45.804655,45.804655 0 0 0 14.653983,41.275631 19.689109,19.689109 0 0 1 4.0096647,24.10762 Z M 20.569591,43.19903 a 19.615459,19.615459 0 0 1 -4.590852,-1.30115 43.990787,43.990787 0 0 1 1.311537,-6.26403 c 0.03871,0.0019 0.07554,0.01133 0.114252,0.01133 0.09159,0 0.17846,-0.01794 0.267218,-0.02738 z m -2.91012,-12.949186 c -0.08498,-0.0085 -0.167129,-0.02549 -0.254943,-0.02549 -0.09159,0 -0.178459,0.01794 -0.268161,0.02738 L 14.5775,23.556189 a 2.7005012,2.7005012 0 0 0 0.968781,-1.336087 33.076419,33.076419 0 0 1 4.178223,0.326704 c 0.0576,0.655296 0.336147,1.247329 0.778047,1.685452 a 55.328171,55.328171 0 0 0 -2.84308,6.017586 z m 7.459426,-7.976865 a 2.6948358,2.6948358 0 0 0 -0.700619,-1.772322 c 1.880908,-2.762821 3.928946,-5.190439 6.006254,-7.144054 1.118914,3.317085 1.989496,6.993921 2.620242,11.005015 a 2.7005012,2.7005012 0 0 0 -0.92157,0.667571 c -2.35208,-1.149129 -4.686219,-2.07542 -7.004307,-2.75621 z m 16.844141,8.845557 a 69.129054,69.129054 0 0 0 -5.240484,-3.553142 c 0.06326,-0.230392 0.108587,-0.467394 0.108587,-0.717615 a 2.7014454,2.7014454 0 0 0 -2.385128,-2.67784 c -0.679846,-4.333077 -1.641074,-8.284684 -2.883682,-11.837826 1.743051,-1.48622 3.487046,-2.620242 5.149837,-3.3208615 4.090409,3.6126285 6.687989,8.8795505 6.687989,14.7536125 0,2.547536 -0.494777,5.015756 -1.437119,7.353672 z"
     fill="#444444" />
</svg>
