<?xml version="1.0" encoding="UTF-8" standalone="no"?>
<svg
   xmlns:dc="http://purl.org/dc/elements/1.1/"
   xmlns:cc="http://creativecommons.org/ns#"
   xmlns:rdf="http://www.w3.org/1999/02/22-rdf-syntax-ns#"
   xmlns:svg="http://www.w3.org/2000/svg"
   xmlns="http://www.w3.org/2000/svg"
   xmlns:sodipodi="http://sodipodi.sourceforge.net/DTD/sodipodi-0.dtd"
   xmlns:inkscape="http://www.inkscape.org/namespaces/inkscape"
   id="Layer_1"
   style="enable-background:new 0 0 1024 1024;"
   version="1.1"
   viewBox="0 0 1024 1024"
   xml:space="preserve"
   sodipodi:docname="ssh.svg"
   inkscape:version="0.92.5 (2060ec1f9f, 2020-04-08)"><metadata
     id="metadata13"><rdf:RDF><cc:Work
         rdf:about=""><dc:format>image/svg+xml</dc:format><dc:type
           rdf:resource="http://purl.org/dc/dcmitype/StillImage" /><dc:title></dc:title></cc:Work></rdf:RDF></metadata><defs
     id="defs11" /><sodipodi:namedview
     pagecolor="#ffffff"
     bordercolor="#666666"
     borderopacity="1"
     objecttolerance="10"
     gridtolerance="10"
     guidetolerance="10"
     inkscape:pageopacity="0"
     inkscape:pageshadow="2"
     inkscape:window-width="1314"
     inkscape:window-height="704"
     id="namedview9"
     showgrid="false"
     showborder="false"
     inkscape:zoom="2.9057669"
     inkscape:cx="275.14384"
     inkscape:cy="84.218737"
     inkscape:window-x="52"
     inkscape:window-y="27"
     inkscape:window-maximized="1"
     inkscape:current-layer="Layer_1" /><g
     id="XMLID_1_" /><g
     id="XMLID_2_" /><g
     id="XMLID_3_" /><g
     id="XMLID_4_" /><g
     id="XMLID_5_" /><g
     id="g22"
     inkscape:export-xdpi="96"
     inkscape:export-ydpi="96"><path
       style="stroke-width:0.0741943"
       inkscape:connector-curvature="0"
       id="XMLID_442_"
       d="m 240.76977,904.18122 h -2.55971 v -9.90494 c 0,-4.03617 -1.5655,-7.82008 -4.40714,-10.66172 -2.84906,-2.84906 -6.62555,-4.41456 -10.64688,-4.41456 -4.02875,0 -7.81266,1.5655 -10.6543,4.41456 -2.84164,2.84906 -4.41456,6.63297 -4.41456,10.66172 v 9.90494 h -2.5597 c -3.04939,0 -5.52748,2.47809 -5.52748,5.52747 v 27.93416 c 0,3.06422 2.47809,5.55715 5.52748,5.55715 h 35.24229 c 3.04938,0 5.52747,-2.49293 5.52747,-5.55715 v -27.93416 c 0,-3.04196 -2.47809,-5.52747 -5.52747,-5.52747 z m -16.13726,24.15024 v 4.11779 h -2.96778 v -4.11779 c -1.70646,-0.60839 -2.93067,-2.24066 -2.93067,-4.15488 0,-2.43357 1.98099,-4.41456 4.41456,-4.41456 2.43357,0 4.41456,1.98099 4.41456,4.41456 0,1.9068 -1.2242,3.53907 -2.93067,4.15488 z m 9.12589,-24.15024 h -21.21956 v -9.90494 c 0,-5.86135 4.76327,-10.62462 10.6172,-10.62462 2.83422,0 5.4978,1.10549 7.50104,3.10874 2.00325,2.00324 3.10132,4.66682 3.10132,7.50846 z" /><text
       id="text17"
       y="928.67267"
       x="255.35428"
       style="font-style:normal;font-variant:normal;font-weight:bold;font-stretch:normal;font-size:48px;line-height:1.25;font-family:sans-serif;-inkscape-font-specification:'sans-serif, Bold';font-variant-ligatures:normal;font-variant-caps:normal;font-variant-numeric:normal;font-feature-settings:normal;text-align:start;letter-spacing:0px;word-spacing:0px;writing-mode:lr-tb;text-anchor:start;fill:#000000;fill-opacity:1;stroke:none"
       xml:space="preserve"><tspan
         style="font-style:normal;font-variant:normal;font-weight:bold;font-stretch:normal;font-size:48px;font-family:sans-serif;-inkscape-font-specification:'sans-serif, Bold';font-variant-ligatures:normal;font-variant-caps:normal;font-variant-numeric:normal;font-feature-settings:normal;text-align:start;writing-mode:lr-tb;text-anchor:start"
         y="928.67267"
         x="255.35428"
         id="tspan15"
         sodipodi:role="line">SSH</tspan></text>
</g></svg>