<?xml version="1.0" encoding="UTF-8" standalone="no"?>
<svg
   xmlns:dc="http://purl.org/dc/elements/1.1/"
   xmlns:cc="http://creativecommons.org/ns#"
   xmlns:rdf="http://www.w3.org/1999/02/22-rdf-syntax-ns#"
   xmlns:svg="http://www.w3.org/2000/svg"
   xmlns="http://www.w3.org/2000/svg"
   xmlns:sodipodi="http://sodipodi.sourceforge.net/DTD/sodipodi-0.dtd"
   xmlns:inkscape="http://www.inkscape.org/namespaces/inkscape"
   id="Layer_1"
   style="enable-background:new 0 0 1024 1024;"
   version="1.1"
   viewBox="0 0 1024 1024"
   xml:space="preserve"
   sodipodi:docname="ssh.svg"
   inkscape:version="0.92.5 (2060ec1f9f, 2020-04-08)"
   inkscape:export-filename="/home/marcelo/Github/My-Learning-Tracker/img/ssh.png"
   inkscape:export-xdpi="96"
   inkscape:export-ydpi="96"><metadata
     id="metadata13"><rdf:RDF><cc:Work
         rdf:about=""><dc:format>image/svg+xml</dc:format><dc:type
           rdf:resource="http://purl.org/dc/dcmitype/StillImage" /><dc:title /></cc:Work></rdf:RDF></metadata><defs
     id="defs11" /><sodipodi:namedview
     pagecolor="#ffffff"
     bordercolor="#666666"
     borderopacity="1"
     objecttolerance="10"
     gridtolerance="10"
     guidetolerance="10"
     inkscape:pageopacity="0"
     inkscape:pageshadow="2"
     inkscape:window-width="1314"
     inkscape:window-height="704"
     id="namedview9"
     showgrid="false"
     showborder="false"
     inkscape:zoom="8.2187498"
     inkscape:cx="426.90648"
     inkscape:cy="104.80594"
     inkscape:window-x="52"
     inkscape:window-y="27"
     inkscape:window-maximized="1"
     inkscape:current-layer="Layer_1" /><g
     id="XMLID_1_" /><g
     id="XMLID_2_" /><g
     id="XMLID_3_" /><g
     id="XMLID_4_" /><g
     id="XMLID_5_" /><path
     style="fill:#000000;stroke-width:0.24994573"
     d="m 403.27624,950.84559 c -2.0264,-0.4923 -3.64118,-1.40096 -5.13028,-2.88687 -1.57145,-1.56808 -2.5577,-3.44141 -2.95928,-5.62098 -0.3795,-2.05971 -0.3795,-44.2134 0,-46.27312 0.79288,-4.3033 4.09718,-7.66771 8.42466,-8.5779 1.85525,-0.39022 44.73503,-0.39022 46.59027,0 4.32748,0.91019 7.63178,4.2746 8.42466,8.5779 0.3795,2.05972 0.3795,44.21341 0,46.27312 -0.79288,4.3033 -4.09718,7.66771 -8.42466,8.57791 -1.96092,0.41244 -45.20507,0.34788 -46.92537,-0.07 z m 13.08173,-6.79632 c 1.60779,-0.80119 2.34447,-1.79908 2.49655,-3.38179 0.13688,-1.42445 -0.25619,-2.53462 -1.14491,-3.23369 -0.63584,-0.50016 -3.11559,-1.31757 -4.87652,-1.60747 -1.25416,-0.20648 -2.03082,-0.96016 -1.67485,-1.62531 0.63531,-1.18708 3.44662,-1.24478 5.67071,-0.11637 0.66245,0.3361 1.28881,0.61155 1.39191,0.61213 0.10311,5e-4 0.18746,-0.72571 0.18746,-1.61397 v -1.61501 l -1.06227,-0.31401 c -0.58425,-0.1727 -2.24326,-0.31764 -3.6867,-0.32207 -2.26187,-0.007 -2.78971,0.0734 -3.82082,0.58106 -1.53641,0.75653 -2.42782,2.03282 -2.42782,3.47607 0,2.46506 1.37804,3.7484 4.78416,4.45533 2.09569,0.43496 2.96416,0.90195 2.96416,1.59388 0,1.64341 -4.41695,1.66865 -6.70653,0.0383 -1.18651,-0.84487 -1.32281,-0.71772 -1.24067,1.15733 l 0.0739,1.68713 1.24973,0.42647 c 0.85584,0.29205 2.08112,0.42991 3.88757,0.4374 2.34863,0.01 2.78005,-0.0599 3.93494,-0.63543 z m 13.24712,0 c 1.70648,-0.85036 2.37573,-1.81471 2.48893,-3.58636 0.16022,-2.50742 -1.07416,-3.60162 -4.98221,-4.41647 -2.266,-0.47248 -2.70479,-0.71503 -2.70479,-1.49514 0,-1.46659 3.08411,-1.73184 5.63354,-0.48451 0.70938,0.34706 1.36293,0.63103 1.45233,0.63103 0.0894,0 0.16256,-0.72676 0.16256,-1.61502 v -1.61501 l -1.06228,-0.31401 c -0.58424,-0.1727 -2.24326,-0.31764 -3.6867,-0.32207 -2.26186,-0.007 -2.78971,0.0734 -3.82082,0.58106 -1.61452,0.79498 -2.42811,2.02044 -2.42688,3.6555 0.002,2.36704 1.29569,3.51964 4.817,4.29086 2.09919,0.45975 2.93038,0.90761 2.93038,1.57892 0,1.66282 -4.43113,1.64899 -6.78712,-0.0212 -1.10016,-0.7799 -1.24107,-0.63209 -1.16008,1.21682 l 0.0739,1.68713 1.24974,0.42647 c 0.85583,0.29205 2.08111,0.42991 3.88757,0.4374 2.34863,0.01 2.78004,-0.0599 3.93493,-0.63543 z m 8.6035,-2.54043 0.0704,-2.93686 h 2.49946 2.49946 l 0.0704,2.93686 0.0704,2.93686 h 1.74169 1.74169 v -6.74853 -6.74854 h -1.74963 -1.74961 v 2.49946 2.49946 h -2.62443 -2.62443 v -2.49946 -2.49946 h -1.74962 -1.74963 v 6.74854 6.74853 h 1.74169 1.74169 z m 2.94479,-26.43176 v -1.3747 h -9.12302 -9.12301 v 1.3747 1.3747 h 9.12301 9.12302 z m -20.54785,-11.04615 0.0726,-1.45114 -7.73837,-3.20495 c -4.2561,-1.76271 -7.97238,-3.26613 -8.25839,-3.34092 -0.48732,-0.12744 -0.52003,-0.0339 -0.52003,1.4872 0,1.00414 0.11915,1.71457 0.31243,1.86279 0.17184,0.13177 2.64631,1.18186 5.49881,2.33351 2.8525,1.15166 5.18637,2.16113 5.18637,2.24327 0,0.0821 -2.44634,1.15475 -5.43632,2.38357 l -5.43632,2.23423 -0.076,1.47168 c -0.0418,0.80944 -0.0213,1.61409 0.0454,1.78814 0.0852,0.22215 2.52833,-0.67767 8.19922,-3.0199 l 8.0778,-3.33634 z"
     id="path26"
     inkscape:connector-curvature="0" /></svg>