<?xml version="1.0" encoding="UTF-8" standalone="no"?>
<svg
   xmlns:sketch="http://www.bohemiancoding.com/sketch/ns"
   xmlns:dc="http://purl.org/dc/elements/1.1/"
   xmlns:cc="http://creativecommons.org/ns#"
   xmlns:rdf="http://www.w3.org/1999/02/22-rdf-syntax-ns#"
   xmlns:svg="http://www.w3.org/2000/svg"
   xmlns="http://www.w3.org/2000/svg"
   xmlns:sodipodi="http://sodipodi.sourceforge.net/DTD/sodipodi-0.dtd"
   xmlns:inkscape="http://www.inkscape.org/namespaces/inkscape"
   width="608px"
   height="160px"
   viewBox="0 0 608 160"
   version="1.1"
   id="svg15"
   sodipodi:docname="tmux.svg"
   inkscape:version="0.92.5 (2060ec1f9f, 2020-04-08)">
  <metadata
     id="metadata19">
    <rdf:RDF>
      <cc:Work
         rdf:about="">
        <dc:format>image/svg+xml</dc:format>
        <dc:type
           rdf:resource="http://purl.org/dc/dcmitype/StillImage" />
        <dc:title>logomark + wordmark copy 3</dc:title>
      </cc:Work>
    </rdf:RDF>
  </metadata>
  <sodipodi:namedview
     pagecolor="#ffffff"
     bordercolor="#666666"
     borderopacity="1"
     objecttolerance="10"
     gridtolerance="10"
     guidetolerance="10"
     inkscape:pageopacity="0"
     inkscape:pageshadow="2"
     inkscape:window-width="1314"
     inkscape:window-height="704"
     id="namedview17"
     showgrid="false"
     showborder="false"
     inkscape:zoom="8.21875"
     inkscape:cx="32"
     inkscape:cy="32"
     inkscape:window-x="52"
     inkscape:window-y="27"
     inkscape:window-maximized="1"
     inkscape:current-layer="svg15" />
  <!-- Generator: Sketch 3.3.1 (12005) - http://www.bohemiancoding.com/sketch -->
  <title
     id="title2">logomark + wordmark copy 3</title>
  <desc
     id="desc4">Created with Sketch.</desc>
  <defs
     id="defs6" />
  <g
     id="logomark"
     sketch:type="MSShapeGroup"
     style="fill:#000000;fill-rule:evenodd;stroke:none;stroke-width:1"
     transform="matrix(0.4,0,0,0.4,0,96)"
     inkscape:export-xdpi="96"
     inkscape:export-ydpi="96">
    <g
       id="status-bar"
       transform="translate(0,144)"
       style="fill:#000000">
      <path
         d="M 2,0.99612763 C 2,8.1850258 7.815791,14 14.998465,14 H 145.00153 C 152.17584,14 158,8.1755955 158,0.99612763 m 2,0 C 160,9.2825375 153.27803,16 145.00153,16 H 14.998465 C 6.7150417,16 0,9.2934149 0,0.99612763 M 2,2 0,0 h 160 l -2,2 m 2,0 H 0"
         id="Shape"
         inkscape:connector-curvature="0"
         style="fill:#000000" />
    </g>
    <path
       d="M 83,70 V 0 h -6 v 146 h 6 V 76 h 77 V 70 Z M 0,15.006487 C 0,6.7186329 6.7219649,0 14.998465,0 H 145.00153 C 153.28496,0 160,6.7249195 160,15.006487 V 146 H 0 Z"
       id="screen"
       inkscape:connector-curvature="0"
       style="fill:#000000" />
  </g>
</svg>
