<?xml version="1.0" encoding="UTF-8" standalone="no"?>
<svg
   xmlns:sketch="http://www.bohemiancoding.com/sketch/ns"
   xmlns:dc="http://purl.org/dc/elements/1.1/"
   xmlns:cc="http://creativecommons.org/ns#"
   xmlns:rdf="http://www.w3.org/1999/02/22-rdf-syntax-ns#"
   xmlns:svg="http://www.w3.org/2000/svg"
   xmlns="http://www.w3.org/2000/svg"
   xmlns:sodipodi="http://sodipodi.sourceforge.net/DTD/sodipodi-0.dtd"
   xmlns:inkscape="http://www.inkscape.org/namespaces/inkscape"
   width="608px"
   height="160px"
   viewBox="0 0 608 160"
   version="1.1"
   id="svg15"
   sodipodi:docname="tmux.svg"
   inkscape:version="0.92.5 (2060ec1f9f, 2020-04-08)">
  <metadata
     id="metadata19">
    <rdf:RDF>
      <cc:Work
         rdf:about="">
        <dc:format>image/svg+xml</dc:format>
        <dc:type
           rdf:resource="http://purl.org/dc/dcmitype/StillImage" />
        <dc:title>logomark + wordmark copy 3</dc:title>
      </cc:Work>
    </rdf:RDF>
  </metadata>
  <sodipodi:namedview
     pagecolor="#ffffff"
     bordercolor="#666666"
     borderopacity="1"
     objecttolerance="10"
     gridtolerance="10"
     guidetolerance="10"
     inkscape:pageopacity="0"
     inkscape:pageshadow="2"
     inkscape:window-width="1314"
     inkscape:window-height="704"
     id="namedview17"
     showgrid="false"
     showborder="false"
     inkscape:zoom="3.1627975"
     inkscape:cx="121.56959"
     inkscape:cy="32"
     inkscape:window-x="52"
     inkscape:window-y="27"
     inkscape:window-maximized="1"
     inkscape:current-layer="svg15" />
  <!-- Generator: Sketch 3.3.1 (12005) - http://www.bohemiancoding.com/sketch -->
  <title
     id="title2">logomark + wordmark copy 3</title>
  <desc
     id="desc4">Created with Sketch.</desc>
  <defs
     id="defs6" />
  <g
     id="Page-1"
     sketch:type="MSPage"
     transform="matrix(0.4,0,0,0.4,0,96)"
     style="fill:#000000;fill-rule:evenodd;stroke:none;stroke-width:1"
     inkscape:export-xdpi="96"
     inkscape:export-ydpi="96">
    <g
       id="logomark-+-wordmark-copy-3"
       sketch:type="MSLayerGroup"
       style="fill:#000000">
      <g
         id="logomark"
         sketch:type="MSShapeGroup"
         style="fill:#000000">
        <g
           id="status-bar"
           transform="translate(0,144)"
           style="fill:#000000">
          <path
             d="M 2,0.99612763 C 2,8.1850258 7.815791,14 14.998465,14 H 145.00153 C 152.17584,14 158,8.1755955 158,0.99612763 m 2,0 C 160,9.2825375 153.27803,16 145.00153,16 H 14.998465 C 6.7150417,16 0,9.2934149 0,0.99612763 M 2,2 0,0 h 160 l -2,2 m 2,0 H 0"
             id="Shape"
             inkscape:connector-curvature="0"
             style="fill:#000000" />
        </g>
        <path
           d="M 83,70 V 0 h -6 v 146 h 6 V 76 h 77 V 70 Z M 0,15.006487 C 0,6.7186329 6.7219649,0 14.998465,0 H 145.00153 C 153.28496,0 160,6.7249195 160,15.006487 V 146 H 0 Z"
           id="screen"
           inkscape:connector-curvature="0"
           style="fill:#000000" />
      </g>
      <path
         d="m 242,148 c -11.14573,-0.16543 -19.36211,-3.03289 -24.87654,-8.7679 C 211.60903,133.49709 208.85185,125.00499 209,113.75556 V 62 H 189 V 47 h 20 V 14 h 16 v 33 l 37,0.08642 V 61.975309 L 225,62 v 51.92099 c 0.39506,6.50703 1.99422,11.27694 5.19259,14.30987 3.19837,3.03294 7.38928,4.54939 12.57284,4.54939 2.42635,0 5.12838,-0.27572 8.10617,-0.82716 2.9778,-0.55145 6.01069,-1.3786 9.09877,-2.48149 l 3.30864,14.55803 c -3.74981,1.32346 -7.41685,2.28847 -11.00123,2.89506 -3.58438,0.60659 -7.08599,0.90988 -10.50494,0.90988 z m 53,-2 H 278.15919 L 278,47.08642 h 17 v 16.54321 c 0,0 9.76616,-9.92591 14.67401,-13.234568 4.90784,-3.308659 10.67034,-4.962963 17.28765,-4.962963 5.8453,0 10.83578,1.626732 14.97161,4.880247 4.13582,3.253514 7.086,7.692564 8.85061,13.317284 0,0 11.13907,-9.92591 16.21235,-13.234568 5.07328,-3.308659 11.08392,-4.962963 18.0321,-4.962963 7.7202,0 13.89627,2.839889 18.52839,8.519753 4.63213,5.679864 6.94815,13.317236 6.44328,22.908149 V 146 h -16 l -0.0383,-66.488889 c 0,-6.617317 -1.2683,-11.332085 -3.80494,-14.144444 -2.53663,-2.81236 -6.1761,-4.218519 -10.91851,-4.218519 -4.74241,0 -9.45718,1.433731 -14.14445,4.301235 C 360.4065,68.316887 356.24316,72.121787 353,76.864198 V 146 H 336.06043 V 79.511111 c 0,-6.617317 -1.2683,-11.332085 -3.80494,-14.144444 -2.53664,-2.81236 -6.17611,-4.218519 -10.91852,-4.218519 -4.74241,0 -9.45718,1.433731 -14.14444,4.301235 -4.68727,2.867504 -8.8506,6.672404 -12.19253,11.414815 z m 143.95049,-7.2642 C 433.10519,132.55964 430.18259,124.34326 430,114 V 47 h 17 v 63.78 c -0.27421,7.05625 1.3801,12.40517 4.68876,16.04469 3.30866,3.63953 8.16128,5.45926 14.55802,5.45926 5.07328,0 10.11891,-1.4613 15.13704,-4.38395 5.01813,-2.92265 10.00862,-7.25141 14.61618,-12.98642 V 47.08642 L 513,47 512.89864,146 H 496 v -16.19753 c 0,0 -10.86636,9.92591 -16.10507,13.23457 C 474.65622,146.3457 468.78344,148 462.27641,148 c -9.7054,0 -17.48063,-3.08804 -23.32592,-9.2642 z M 588.65783,146 564.50474,108.95803 541.84055,146 H 523.47758 L 556.564,96.550617 524.63561,47 H 543.164 L 566.15906,82.819753 589.48499,47 h 18.36296 L 574.43067,95.558025 607.18622,146 Z"
         id="wordmark"
         sketch:type="MSShapeGroup"
         inkscape:connector-curvature="0"
         style="fill:#000000" />
    </g>
  </g>
</svg>
